<svg width="256" height="256" viewBox="0 0 256 256" fill="none" xmlns="http://www.w3.org/2000/svg">
<rect width="256" height="256" rx="12" fill="#05132C"/>
<rect x="238.856" y="53.5" width="149" height="221.356" rx="6.20017" transform="rotate(90 238.856 53.5)" fill="url(#paint0_linear_73_5165)" stroke="white"/>
<rect x="33.2186" y="73" width="87.7037" height="109.63" rx="5.70017" fill="#BDEBEE"/>
<line x1="143.264" y1="85.5211" x2="216.143" y2="85.5211" stroke="#BDEBEE" stroke-width="4.95772" stroke-linecap="round"/>
<line x1="143.264" y1="165.134" x2="216.143" y2="165.134" stroke="#BDEBEE" stroke-width="4.95772" stroke-linecap="round"/>
<line x1="143.479" y1="143.521" x2="216.358" y2="143.521" stroke="#BDEBEE" stroke-width="4.95772" stroke-linecap="round"/>
<line x1="143.264" y1="125.134" x2="216.143" y2="125.134" stroke="#BDEBEE" stroke-width="4.95772" stroke-linecap="round"/>
<line x1="143.264" y1="105.134" x2="216.143" y2="105.134" stroke="#BDEBEE" stroke-width="4.95772" stroke-linecap="round"/>
<path d="M77 158.75C93.9827 158.75 107.75 144.983 107.75 128C107.75 111.017 93.9827 97.25 77 97.25C60.0172 97.25 46.25 111.017 46.25 128C46.25 144.983 60.0172 158.75 77 158.75Z" stroke="#3D92AD" stroke-width="6" stroke-linecap="round" stroke-linejoin="round"/>
<path d="M74.4375 125.438H77V143.375H79.5625" stroke="#3D92AD" stroke-width="6" stroke-linecap="round" stroke-linejoin="round"/>
<path d="M76.3594 117.609C78.4046 117.609 80.0625 115.951 80.0625 113.906C80.0625 111.861 78.4046 110.203 76.3594 110.203C74.3142 110.203 72.6562 111.861 72.6562 113.906C72.6562 115.951 74.3142 117.609 76.3594 117.609Z" fill="#3D92AD" stroke="#3D92AD"/>
<defs>
<linearGradient id="paint0_linear_73_5165" x1="238.356" y1="274.356" x2="386.356" y2="54.3555" gradientUnits="userSpaceOnUse">
<stop stop-color="#4AA5C1"/>
<stop offset="1" stop-color="#084659"/>
</linearGradient>
</defs>
</svg>
