<svg width="110" height="98" viewBox="0 0 110 98" fill="none" xmlns="http://www.w3.org/2000/svg">
<g clip-path="url(#clip0_64_2315)">
<path d="M108.524 84.3706L23.5913 35.3032L0 48.9327L84.9308 98L108.524 84.3706Z" fill="black"/>
<path d="M4.71897 42.117L70.7757 80.1134V51.6578L4.71897 13.4946" fill="#0293A1"/>
<path d="M70.7757 51.6578V80.1152L94.3687 66.484V38.0283L70.7757 51.6578Z" fill="#9BD6E0"/>
<path d="M94.3687 38.0283L28.7444 0.116912C28.4768 -0.0373431 28.1455 -0.0373431 27.8779 0.116912L4.71897 13.4946L70.7757 51.6577L94.367 38.0283" fill="#D9EFF1"/>
<path d="M19.87 45.1897V32.2464L15.874 29.9379V27.3245L26.8271 33.6507V36.2642L22.8524 33.9681V46.9113L19.87 45.1897Z" fill="white"/>
<path d="M16.1398 27.7838L26.5613 33.8033V35.8033L22.5865 33.5072V46.4505L20.1376 45.0356V32.0923L16.1416 29.7838V27.7838M15.61 26.8618V30.0905L15.8758 30.2448L19.606 32.3991V45.3423L19.8718 45.4966L22.3207 46.9115L23.1182 47.3725V34.4292L26.2954 36.2643L27.0929 36.7253V33.4983L26.8271 33.3441L16.4056 27.3246L15.6082 26.8636L15.61 26.8618Z" fill="white"/>
<path d="M42.0437 57.9984V48.5711L37.8492 55.5747L35.8397 54.4151L31.7463 42.8974V52.0499L28.7657 50.3282V34.7715L31.8916 36.5782L36.9791 50.885L42.0454 42.4417L45.026 44.1633V59.7201L42.0437 57.9984Z" fill="white"/>
<path d="M29.0315 35.2325L31.6736 36.7591L36.9171 51.5055L42.1376 42.8052L44.7584 44.3193V59.2608L42.3095 57.8459V47.6119L37.7553 55.2147L36.0577 54.2342L31.4805 41.3566V51.5906L29.0315 50.1757V35.2342M28.4999 34.3123V50.4825L28.7657 50.6367L31.2147 52.0516L32.0121 52.5126V44.4417L35.5562 54.4133L35.6217 54.5977L35.7919 54.6952L37.4895 55.6757L37.9431 55.9381L38.2125 55.4896L41.7796 49.5357V58.1545L42.0454 58.3087L44.4944 59.7236L45.2918 60.1846V44.0144L45.026 43.8601L42.4052 42.3459L41.9533 42.0853L41.6839 42.5339L37.0429 50.2697L32.1769 36.5853L32.1113 36.4009L31.9412 36.3034L29.2991 34.7768L28.5016 34.3158L28.4999 34.3123Z" fill="white"/>
<path d="M57.4251 65.7377C56.1084 65.7377 54.5278 65.2111 52.7273 64.1703L47.7178 61.2767V45.72L52.9932 48.7678C57.8911 51.5959 61.0542 56.4381 61.0542 61.103C61.0542 64.0923 59.7659 65.7377 57.4251 65.7377ZM52.9932 61.7093C54.1804 62.3955 55.1834 62.743 55.9755 62.743C56.6418 62.743 57.1309 62.5001 57.4711 62.0019C57.8273 61.4806 58.0081 60.6881 58.0081 59.6491C58.0081 56.2359 56.0836 53.165 52.7256 51.2271L50.6966 50.0551V60.3849L52.9914 61.7111L52.9932 61.7093Z" fill="white"/>
<path d="M47.9836 46.1792L52.8602 48.9966C57.6519 51.7644 60.7884 56.4789 60.7884 61.1012C60.7884 64.0002 59.5427 65.47 57.4251 65.47C56.1793 65.47 54.6341 64.9629 52.8602 63.9381L47.9836 61.1207V46.1792ZM55.9773 63.009C57.4871 63.009 58.2756 61.8441 58.2756 59.6491C58.2756 56.2307 56.3849 53.0321 52.8602 50.9966L50.4325 49.5941V60.5374L52.8602 61.9399C54.1078 62.6597 55.1497 63.009 55.9755 63.009M47.4502 45.259V61.4292L47.716 61.5835L52.5927 64.4009C54.4338 65.4647 56.0588 66.0037 57.4233 66.0037C59.8988 66.0037 61.3182 64.2165 61.3182 61.103C61.3182 56.3459 58.102 51.4133 53.1243 48.5374L48.2476 45.72L47.4502 45.259V45.259ZM50.9624 60.2307V50.5161L52.5927 51.4576C55.8656 53.3477 57.7422 56.3335 57.7422 59.6509C57.7422 62.4789 56.4114 62.4789 55.9755 62.4789C55.2313 62.4789 54.2726 62.1438 53.1261 61.4807L50.9642 60.2324L50.9624 60.2307Z" fill="white"/>
<path d="M86.4069 69.9646L72.2518 61.7873V83.594L85.9728 91.2607C86.2421 91.4114 86.5717 91.4096 86.8393 91.2589L109.55 78.3972C109.828 78.2394 109.998 77.9451 109.998 77.6277V56.3369L86.4069 69.9663V69.9646Z" fill="#EF8B43"/>
<path d="M76.9708 70.2714V75.3157C76.9708 75.3796 77.0044 75.4363 77.0594 75.4682L86.3201 80.8175C86.375 80.8494 86.4424 80.8494 86.4973 80.8175L109.913 67.2891C109.968 67.2572 110.002 67.1987 110.002 67.1367V62.0923C110.002 61.9558 109.855 61.8707 109.738 61.9398L86.4991 75.3654C86.4441 75.3973 86.3768 75.3973 86.3219 75.3654L77.2383 70.1171C77.1214 70.0498 76.9743 70.1349 76.9743 70.2696L76.9708 70.2714Z" fill="black"/>
<path d="M110 56.3353L86.4069 69.9647L72.2518 61.7874L95.8449 48.158L110 56.3353Z" fill="#EFAA77"/>
<path d="M76.9708 53.5816L86.4069 59.0337L100.562 50.8547L91.1259 45.4043L76.9708 53.5816Z" fill="#EFAA77"/>
<path d="M100.562 50.8547L86.4069 59.0338L76.9708 53.5817V59.0338L86.4069 64.4859L100.562 56.3069V50.8547Z" fill="#EF8B43"/>
<path d="M107.496 75.9734C108.108 75.9734 108.604 75.1144 108.604 74.0549C108.604 72.9954 108.108 72.1365 107.496 72.1365C106.884 72.1365 106.389 72.9954 106.389 74.0549C106.389 75.1144 106.884 75.9734 107.496 75.9734Z" fill="#D9EFF1"/>
<path d="M88.7673 86.8759C89.379 86.8759 89.8748 86.017 89.8748 84.9575C89.8748 83.898 89.379 83.0391 88.7673 83.0391C88.1556 83.0391 87.6598 83.898 87.6598 84.9575C87.6598 86.017 88.1556 86.8759 88.7673 86.8759Z" fill="#D9EFF1"/>
<path d="M63.5864 81.7825C65.0044 80.3637 64.1629 77.2215 61.7069 74.7641C59.2509 72.3067 56.1104 71.4647 54.6924 72.8835C53.2744 74.3023 54.1159 77.4445 56.572 79.9019C59.028 82.3593 62.1684 83.2013 63.5864 81.7825Z" fill="black"/>
<path d="M62.3509 80.5465C63.3751 79.5217 62.7676 77.2523 60.9939 75.4776C59.2202 73.7029 56.9521 73.095 55.9279 74.1198C54.9037 75.1446 55.5113 77.414 57.2849 79.1887C59.0586 80.9633 61.3267 81.5712 62.3509 80.5465Z" fill="#D9EFF1"/>
<path d="M57.8858 74.8297H57.8822H57.8787C57.8787 74.8297 57.8769 74.8297 57.8752 74.8297C57.8752 74.8297 57.8716 74.8297 57.8698 74.8297C57.8698 74.8297 57.8663 74.8297 57.8645 74.8297C57.8645 74.8297 57.8592 74.8297 57.8574 74.8297C57.8539 74.8297 57.8521 74.8297 57.8486 74.8297C57.8486 74.8297 57.8433 74.8297 57.8397 74.8297C57.8362 74.8297 57.8326 74.8297 57.8273 74.8297C57.8273 74.8297 57.8202 74.8297 57.8149 74.8297C57.8149 74.8297 57.806 74.8297 57.8025 74.8297C57.7883 74.8297 57.7759 74.8314 57.7617 74.8332C57.7617 74.8332 57.7547 74.8332 57.7493 74.8332C57.7086 74.8385 57.6678 74.8456 57.6288 74.8527C57.6164 74.8545 57.604 74.858 57.5916 74.8616C57.4747 74.8882 57.3683 74.929 57.2744 74.9821L57.3613 75.1364C57.5261 75.0442 57.7263 74.9981 57.9567 74.9981V74.8208L57.8858 74.8297ZM56.741 75.5123C56.7304 75.5353 56.7216 75.5602 56.7127 75.585C56.7127 75.5885 56.7109 75.5921 56.7091 75.5956C56.7091 75.5974 56.7091 75.5992 56.7074 75.6009C56.7074 75.6009 56.7074 75.6045 56.7074 75.6063C56.7074 75.6063 56.7074 75.608 56.7074 75.6098C56.7074 75.6098 56.7074 75.6098 56.7074 75.6116V75.6151C56.7074 75.6151 56.7074 75.6151 56.7074 75.6169C56.7074 75.6169 56.7074 75.6187 56.7074 75.6204C56.7074 75.6204 56.7074 75.624 56.7074 75.6258C56.7074 75.6258 56.7074 75.6293 56.7074 75.6311C56.7074 75.6329 56.7074 75.6364 56.7074 75.6382C56.7074 75.6417 56.7074 75.6435 56.7074 75.647C56.7074 75.647 56.7074 75.6541 56.7074 75.6577C56.7074 75.6577 56.7074 75.6665 56.7074 75.6701C56.7074 75.6701 56.7074 75.6807 56.7074 75.686C56.7074 75.686 56.7074 75.6878 56.7074 75.6896C56.7074 75.6896 56.7074 75.7002 56.7074 75.7056C56.7074 75.7056 56.7074 75.7073 56.7074 75.7091C56.7074 75.7091 56.7074 75.7215 56.7074 75.7268C56.7074 75.7268 56.7074 75.7392 56.7074 75.7463C56.7074 75.7463 56.7074 75.757 56.7074 75.7623C56.7074 75.7623 56.7074 75.7747 56.7074 75.78C56.7074 75.7853 56.7074 75.7907 56.7074 75.796L56.8846 75.7853C56.8686 75.5513 56.8988 75.3456 56.9732 75.1701L56.8102 75.1009L56.741 75.5123ZM56.9537 76.8421L56.7871 76.9006C56.796 76.9254 56.8048 76.9502 56.8137 76.9733C56.8137 76.9733 56.8137 76.9751 56.8137 76.9768C56.8137 76.9768 56.8137 76.9786 56.8137 76.9804C56.8137 76.9804 56.8137 76.9804 56.8137 76.9821C56.8137 76.9821 56.8137 76.9822 56.8137 76.9839V76.9857C56.8137 76.9857 56.8137 76.9857 56.8137 76.9875C56.8137 76.9875 56.8137 76.9875 56.8137 76.9892V76.991V76.9928V76.9946C56.8137 76.9946 56.8137 76.9946 56.8137 76.9963C56.8137 76.9963 56.8137 76.9963 56.8137 76.9981V76.9999C56.8137 76.9999 56.8137 76.9999 56.8137 77.0017C56.8137 77.0017 56.8137 77.0017 56.8137 77.0034C56.8137 77.0034 56.8137 77.0034 56.8137 77.0052C56.8137 77.0052 56.8137 77.0052 56.8137 77.007C56.8137 77.007 56.8137 77.007 56.8137 77.0087C56.8137 77.0087 56.8137 77.0087 56.8137 77.0105V77.0123C56.8137 77.0123 56.8137 77.0123 56.8137 77.0141C56.8137 77.0141 56.8137 77.0158 56.8137 77.0176C56.8137 77.0176 56.8137 77.0194 56.8137 77.0212C56.8137 77.0212 56.8137 77.0229 56.8137 77.0247C56.8137 77.0247 56.8137 77.0265 56.8137 77.0282C56.8137 77.0282 56.8137 77.0283 56.8137 77.03C56.8137 77.03 56.8137 77.0318 56.8137 77.0336C56.8137 77.0336 56.8137 77.0353 56.8137 77.0371V77.0407C56.8137 77.0407 56.8137 77.0407 56.8155 77.0407C56.8155 77.0407 56.8155 77.0424 56.8155 77.0442C56.8155 77.0442 56.8155 77.046 56.8172 77.0478C56.8474 77.1098 56.8775 77.1701 56.9112 77.2321C56.9112 77.2321 56.9112 77.2339 56.9129 77.2357C56.9129 77.2357 56.9129 77.2375 56.9147 77.2392C56.9147 77.2392 56.9147 77.241 56.9165 77.2428C56.9165 77.2428 56.9165 77.2428 56.9165 77.2446C56.9165 77.2446 56.9165 77.2446 56.9165 77.2463C56.9165 77.2463 56.9165 77.2463 56.9165 77.2481C56.9165 77.2481 56.9165 77.2481 56.9165 77.2499C56.9165 77.2499 56.9165 77.2517 56.9182 77.2534C56.9182 77.2534 56.9182 77.2552 56.92 77.257C56.92 77.257 56.92 77.2587 56.9218 77.2605C56.9218 77.2605 56.9271 77.2694 56.9289 77.2729L57.083 77.1843C56.9661 76.9804 56.8704 76.7729 56.8013 76.5708L56.9537 76.8421ZM57.6182 78.0194L57.48 78.1293C57.5243 78.186 57.5704 78.2428 57.6182 78.2978C57.6182 78.2978 57.6235 78.3031 57.6253 78.3066C57.6253 78.3066 57.6253 78.3066 57.6253 78.3084C57.6271 78.3119 57.6306 78.3137 57.6324 78.3173C57.6324 78.3173 57.6324 78.3173 57.6324 78.319C57.6324 78.319 57.6324 78.319 57.6324 78.3208C57.6324 78.3208 57.6342 78.3243 57.6359 78.3243C57.6359 78.3243 57.6359 78.3244 57.6359 78.3261C57.6359 78.3261 57.6359 78.3261 57.6377 78.3279C57.6377 78.3279 57.6377 78.3279 57.6377 78.3297C57.6377 78.3297 57.6377 78.3297 57.6377 78.3314C57.6377 78.3314 57.6377 78.3314 57.6395 78.3332C57.6395 78.3332 57.6412 78.335 57.643 78.3368C57.643 78.3368 57.6448 78.3385 57.6466 78.3403C57.6466 78.3403 57.6483 78.3421 57.6501 78.3438C57.6501 78.3438 57.6501 78.3439 57.6501 78.3456C57.6501 78.3456 57.6501 78.3456 57.6501 78.3474C57.6501 78.3474 57.6501 78.3474 57.6501 78.3492C57.6501 78.3492 57.6501 78.3492 57.6501 78.3509C57.6501 78.3509 57.6501 78.3509 57.6501 78.3527C57.6501 78.3527 57.6501 78.3527 57.6501 78.3545C57.6501 78.3545 57.6501 78.3545 57.6501 78.3563C57.6501 78.3563 57.6501 78.3563 57.6501 78.358C57.6501 78.358 57.6501 78.358 57.6501 78.3598C57.6501 78.3598 57.6501 78.3598 57.6501 78.3616C57.6501 78.3616 57.6501 78.3616 57.6501 78.3634C57.6501 78.3634 57.6501 78.3634 57.6501 78.3651C57.6501 78.3651 57.6501 78.3651 57.6501 78.3669C57.6501 78.3669 57.6501 78.3669 57.6501 78.3687C57.6501 78.3687 57.6501 78.3687 57.6501 78.3704C57.6501 78.3704 57.6501 78.3704 57.6501 78.3722V78.374V78.3758C57.6501 78.3758 57.6501 78.3758 57.6501 78.3775C57.6501 78.3775 57.6501 78.3775 57.6501 78.3793C57.6501 78.3793 57.6501 78.3793 57.6501 78.3811C57.6501 78.3811 57.6501 78.3811 57.6501 78.3829C57.6501 78.3829 57.6501 78.3829 57.6501 78.3846H57.6519C57.6519 78.3846 57.6519 78.3864 57.6519 78.3882C57.6519 78.3882 57.6519 78.3882 57.6519 78.39C57.6519 78.39 57.6519 78.39 57.6536 78.3917C57.6536 78.3917 57.6536 78.3917 57.6536 78.3935C57.6536 78.3935 57.6554 78.3953 57.6572 78.397C57.6572 78.397 57.6607 78.4006 57.6607 78.4024C57.6607 78.4024 57.6643 78.4059 57.6661 78.4095C57.6678 78.4112 57.6696 78.413 57.6731 78.4148C57.6767 78.4183 57.6785 78.4201 57.682 78.4236L57.8043 78.296C57.6395 78.1364 57.4835 77.9662 57.3435 77.7889L57.6182 78.0194ZM58.6017 78.968L58.4971 79.1116C58.4971 79.1116 58.5131 79.1222 58.5202 79.1275C58.5202 79.1275 58.522 79.1275 58.5237 79.1293C58.5237 79.1293 58.5237 79.1293 58.5255 79.1293C58.5255 79.1293 58.5273 79.1293 58.529 79.1311C58.529 79.1311 58.5308 79.1311 58.5326 79.1329C58.6584 79.2215 58.7878 79.3031 58.9171 79.3775C58.9171 79.3775 58.9207 79.3793 58.9224 79.3811C58.9224 79.3811 58.9224 79.3811 58.9242 79.3811C58.9242 79.3811 58.9242 79.3811 58.926 79.3811C58.926 79.3811 58.926 79.3811 58.9278 79.3811C58.9278 79.3811 58.9277 79.3811 58.9295 79.3811C58.9295 79.3811 58.9295 79.3811 58.9313 79.3811C58.9313 79.3811 58.9331 79.3811 58.9348 79.3829C58.9667 79.4006 59.0004 79.4183 59.0341 79.4343L59.1156 79.2765C58.9207 79.1772 58.7257 79.0566 58.5379 78.9183L58.6017 78.968ZM59.8049 79.5743L59.7571 79.7446C59.7571 79.7446 59.7695 79.7481 59.7766 79.7499C59.7766 79.7499 59.7766 79.7499 59.7783 79.7499C59.7783 79.7499 59.7783 79.7499 59.7801 79.7499C59.9963 79.8084 60.2001 79.835 60.3844 79.835H60.3897H60.3915C60.3915 79.835 60.3915 79.835 60.3932 79.835C60.3932 79.835 60.3932 79.835 60.395 79.835C60.395 79.835 60.3968 79.835 60.3986 79.835C60.4092 79.835 60.4198 79.835 60.4322 79.835L60.4251 79.6577C60.4056 79.6577 60.3844 79.6577 60.3631 79.6577C60.1895 79.6577 60.0016 79.6311 59.8049 79.5779L59.7801 79.5708L59.8049 79.5743ZM61.3909 79.0336C61.32 79.2304 61.2013 79.3864 61.0347 79.4928L61.1304 79.6417C61.1304 79.6417 61.1304 79.6417 61.1322 79.6417C61.1322 79.6417 61.1322 79.6417 61.134 79.6417C61.134 79.6417 61.134 79.6417 61.1357 79.6417C61.1357 79.6417 61.1357 79.6417 61.1375 79.6417C61.1375 79.6417 61.1375 79.6417 61.1393 79.6417C61.1393 79.6417 61.1393 79.6417 61.141 79.6417C61.141 79.6417 61.1428 79.6417 61.1446 79.64C61.1446 79.64 61.1446 79.64 61.1464 79.64C61.1464 79.64 61.1481 79.64 61.1499 79.6382C61.1499 79.6382 61.1534 79.6364 61.1534 79.6346C61.1534 79.6346 61.157 79.6329 61.157 79.6311C61.157 79.6311 61.1605 79.6293 61.1605 79.6275C61.1623 79.6275 61.1641 79.624 61.1659 79.624C61.2739 79.5407 61.3626 79.4361 61.4317 79.3155C61.4317 79.3155 61.4334 79.3119 61.4352 79.3102C61.4352 79.3102 61.437 79.3066 61.4387 79.3048C61.4387 79.3048 61.4405 79.3013 61.4423 79.2995C61.4423 79.2995 61.4423 79.296 61.4441 79.2942C61.4441 79.2942 61.4441 79.2924 61.4458 79.2907C61.4458 79.2907 61.4458 79.2889 61.4476 79.2871C61.4476 79.2871 61.4476 79.2853 61.4494 79.2836C61.4494 79.2836 61.4494 79.28 61.4511 79.2783C61.4511 79.2783 61.4512 79.2765 61.4529 79.2747C61.4529 79.2747 61.4529 79.2729 61.4547 79.2712C61.4547 79.2712 61.4547 79.2694 61.4565 79.2676C61.4565 79.2676 61.4565 79.2658 61.4582 79.2641C61.4582 79.2641 61.4582 79.2623 61.46 79.2605C61.46 79.2605 61.46 79.2587 61.4618 79.257C61.4618 79.257 61.4618 79.2552 61.4618 79.2534C61.4618 79.2534 61.4618 79.2517 61.4618 79.2499V79.2481C61.4618 79.2481 61.4618 79.2481 61.4618 79.2463C61.4618 79.2463 61.4618 79.2446 61.4618 79.2428C61.4618 79.2428 61.4618 79.241 61.4618 79.2392C61.4618 79.2392 61.4618 79.2392 61.4618 79.2375C61.4618 79.2375 61.4618 79.2375 61.4618 79.2357C61.4618 79.2357 61.4618 79.2357 61.4618 79.2339V79.2321C61.4618 79.2321 61.4618 79.2321 61.4618 79.2304C61.4618 79.2304 61.4618 79.2286 61.4618 79.2268C61.4618 79.2268 61.4618 79.2268 61.4618 79.2251C61.4618 79.2251 61.4618 79.2251 61.4618 79.2233C61.4618 79.2233 61.4618 79.2215 61.4618 79.2197L61.2952 79.1595L61.3909 79.0336ZM61.4653 77.7056L61.2988 77.7676C61.3307 77.8545 61.359 77.9431 61.382 78.03C61.4175 78.1612 61.4405 78.2907 61.4529 78.4112L61.6301 78.3935C61.6301 78.3758 61.6266 78.3598 61.6248 78.3421C61.6177 78.2924 61.6106 78.2428 61.6 78.1931C61.6 78.1931 61.6 78.1914 61.6 78.1896C61.6 78.1896 61.6 78.1896 61.6 78.1878C61.6 78.1807 61.5965 78.1736 61.5947 78.1665C61.5947 78.1665 61.5947 78.1665 61.5947 78.1648C61.5947 78.1648 61.5947 78.1648 61.5947 78.163C61.5947 78.163 61.5947 78.163 61.5947 78.1612C61.5947 78.1612 61.5947 78.1612 61.5947 78.1595C61.5947 78.1595 61.5947 78.1595 61.5947 78.1577C61.5947 78.1577 61.5947 78.1577 61.5947 78.1559C61.5947 78.1559 61.5947 78.1559 61.5947 78.1541C61.5947 78.1541 61.5947 78.1541 61.5947 78.1524C61.5947 78.1524 61.5947 78.1524 61.5947 78.1506C61.5947 78.1506 61.5947 78.1506 61.5947 78.1488C61.5947 78.1488 61.5947 78.147 61.5947 78.1453C61.5947 78.1453 61.5947 78.1453 61.5947 78.1435C61.5947 78.1435 61.5947 78.1435 61.5947 78.1417C61.5947 78.1417 61.5947 78.1417 61.5947 78.14C61.5947 78.1382 61.5947 78.1364 61.5947 78.1346C61.5947 78.1346 61.5947 78.1346 61.5947 78.1329C61.5947 78.1329 61.5947 78.1329 61.5947 78.1311C61.5947 78.1293 61.5947 78.1258 61.5929 78.124C61.5929 78.124 61.5929 78.124 61.5929 78.1222C61.5929 78.1204 61.5929 78.1169 61.5911 78.1151C61.5823 78.085 61.5734 78.0548 61.5628 78.0247C61.5628 78.0247 61.5628 78.0247 61.5628 78.0229C61.5628 78.0229 61.5628 78.0229 61.5628 78.0212C61.5628 78.0212 61.5628 78.0194 61.5628 78.0176C61.5628 78.0176 61.5628 78.0176 61.5628 78.0158C61.5628 78.0158 61.5628 78.0158 61.5628 78.0141C61.5628 78.0141 61.5628 78.0141 61.5628 78.0123C61.5628 78.0123 61.5628 78.0123 61.5628 78.0105C61.5628 78.0105 61.5628 78.0105 61.5628 78.0087C61.5628 78.0087 61.5628 78.0087 61.5628 78.007V78.0052C61.5628 78.0052 61.5628 78.0052 61.5628 78.0034C61.5628 78.0034 61.5628 78.0017 61.5628 77.9999C61.5628 77.9999 61.5628 77.9999 61.5628 77.9981C61.5557 77.9751 61.5468 77.9538 61.538 77.9307L61.4653 77.7056ZM60.7512 76.4875L60.613 76.5992C60.76 76.78 60.8912 76.968 61.0046 77.1577L61.157 77.0673C61.1074 76.9839 61.0542 76.9006 60.9993 76.819C60.9993 76.819 60.994 76.8119 60.9922 76.8084C60.9922 76.8084 60.9886 76.8031 60.9869 76.8013C60.9869 76.8013 60.9869 76.8013 60.9869 76.7995C60.9869 76.7978 60.9833 76.7942 60.9816 76.7924C60.9816 76.7924 60.9816 76.7924 60.9816 76.7907C60.9816 76.7907 60.9816 76.7907 60.9816 76.7889C60.9816 76.7871 60.978 76.7836 60.9762 76.7818C60.9762 76.7818 60.9762 76.7818 60.9762 76.78C60.9762 76.7783 60.9727 76.7765 60.9709 76.7729C60.9709 76.7729 60.9709 76.7729 60.9709 76.7712C60.9709 76.7712 60.9692 76.7676 60.9674 76.7676C60.9674 76.7676 60.9674 76.7676 60.9674 76.7658C60.9674 76.7658 60.9674 76.7658 60.9674 76.7641C60.9674 76.7641 60.9656 76.7605 60.9638 76.7605C60.9638 76.7605 60.9638 76.7605 60.9638 76.7587C60.9638 76.7587 60.9638 76.7587 60.9638 76.757C60.9638 76.757 60.9638 76.757 60.9638 76.7552V76.7534C60.9638 76.7534 60.9638 76.7534 60.9638 76.7517C60.9638 76.7517 60.9638 76.7517 60.9638 76.7499C60.9638 76.7499 60.9638 76.7499 60.9638 76.7481C60.9638 76.7481 60.9638 76.7481 60.9638 76.7463C60.9638 76.7463 60.9638 76.7463 60.9638 76.7446C60.9638 76.7446 60.9638 76.7446 60.9621 76.7428C60.9621 76.7428 60.9603 76.7392 60.9585 76.7375C60.9585 76.7375 60.9568 76.7339 60.955 76.7321C60.955 76.7304 60.9514 76.7268 60.9497 76.7251C60.9479 76.7215 60.9461 76.7197 60.9426 76.7162C60.9 76.6595 60.8575 76.6045 60.8132 76.5495L60.7512 76.4875ZM59.7199 75.5194L59.6171 75.6648C59.7996 75.7942 59.9786 75.9396 60.1469 76.0992L60.2674 75.9697C60.1877 75.8953 60.1062 75.8226 60.0229 75.7534C60.0211 75.7517 60.0176 75.7499 60.0158 75.7481C60.0158 75.7481 60.0122 75.7446 60.0105 75.7446C60.0105 75.7446 60.0069 75.741 60.0052 75.741C60.0052 75.741 60.0052 75.741 60.0034 75.7392H60.0016V75.7375C60.0016 75.7375 60.0016 75.7375 59.9998 75.7375C59.9998 75.7375 59.9963 75.7357 59.9963 75.7339C59.9963 75.7339 59.9963 75.7339 59.9945 75.7339C59.9945 75.7339 59.991 75.7321 59.991 75.7304C59.991 75.7304 59.9874 75.7286 59.9874 75.7268C59.9874 75.7268 59.9874 75.7268 59.9857 75.7268C59.9857 75.7268 59.9857 75.7268 59.9839 75.7268C59.9839 75.7268 59.9804 75.7251 59.9804 75.7233C59.9804 75.7233 59.9803 75.7233 59.9786 75.7233C59.9786 75.7233 59.9786 75.7233 59.9768 75.7233C59.975 75.7233 59.9733 75.7197 59.9697 75.718C59.9697 75.718 59.9697 75.718 59.9679 75.718C59.9679 75.718 59.9626 75.7126 59.9591 75.7109C59.9591 75.7109 59.9591 75.7109 59.9573 75.7109C59.8971 75.6648 59.8368 75.6187 59.7766 75.5761L59.7199 75.5194ZM58.4493 74.9077L58.405 75.0797L58.4422 75.0885C58.6354 75.14 58.8338 75.2162 59.0341 75.3137L59.112 75.1541C59.0536 75.1258 58.9951 75.0974 58.9348 75.0726C58.9348 75.0726 58.9348 75.0726 58.9331 75.0726C58.9331 75.0726 58.9331 75.0726 58.9313 75.0726C58.9313 75.0726 58.9295 75.0726 58.9278 75.0726C58.9278 75.0726 58.9278 75.0726 58.926 75.0726C58.926 75.0726 58.926 75.0726 58.9242 75.0726C58.9242 75.0726 58.9242 75.0726 58.9224 75.0726C58.9224 75.0726 58.9207 75.0726 58.9189 75.0726C58.7913 75.0194 58.6637 74.9768 58.5361 74.9414C58.5361 74.9414 58.5344 74.9414 58.5326 74.9414C58.5326 74.9414 58.5326 74.9414 58.5308 74.9414C58.5308 74.9414 58.5308 74.9414 58.529 74.9414H58.5273C58.5273 74.9414 58.5273 74.9414 58.5255 74.9414C58.5202 74.9414 58.5149 74.9378 58.5095 74.9378C58.5095 74.9378 58.5007 74.9361 58.4954 74.9343L58.4493 74.9077Z" fill="#4E4E4E"/>
<path d="M59.9201 78.1142C60.1692 77.865 60.0216 77.3132 59.5905 76.8818C59.1594 76.4504 58.6079 76.3028 58.3588 76.5521C58.1096 76.8013 58.2572 77.3531 58.6883 77.7845C59.1195 78.2159 59.6709 78.3635 59.9201 78.1142Z" fill="black"/>
<path d="M63.8204 81.2215C64.0702 80.5637 64.0756 79.7463 63.8328 78.8385C63.0921 76.0743 60.2426 73.2233 57.48 72.4821C57.037 72.3633 56.6117 72.303 56.2183 72.303C55.8249 72.303 55.4315 72.3669 55.0984 72.4945C55.5236 71.8846 56.2396 71.5513 57.1451 71.5513C57.5243 71.5513 57.9336 71.6098 58.3625 71.725C61.0702 72.4502 63.8629 75.2463 64.5894 77.9555C64.9811 79.4165 64.6922 80.6133 63.8204 81.2215Z" fill="#4E4E4E"/>
<path d="M57.1451 71.6417C57.5172 71.6417 57.9195 71.6985 58.3394 71.8119C61.0205 72.53 63.7849 75.2978 64.5044 77.9804C64.8482 79.2676 64.6568 80.3403 63.9958 80.9662C64.1571 80.3474 64.1323 79.6151 63.9196 78.8173C63.1718 76.0265 60.294 73.147 57.5048 72.3988C57.0547 72.2782 56.6223 72.2162 56.2201 72.2162C55.9117 72.2162 55.6229 72.2517 55.3571 72.3208C55.7735 71.8793 56.3919 71.6417 57.1468 71.6417M57.1468 71.4644C56.0783 71.4644 55.2826 71.913 54.8786 72.6914C55.2543 72.4963 55.7044 72.3917 56.2201 72.3917C56.6011 72.3917 57.0157 72.4485 57.4605 72.5673C60.2001 73.3013 63.0159 76.1187 63.7495 78.8598C64.0295 79.9059 63.9657 80.7889 63.6272 81.4414C64.6834 80.8935 65.1317 79.6258 64.6781 77.9307C63.9444 75.1896 61.1286 72.3722 58.389 71.6382C57.9443 71.5194 57.5296 71.4626 57.1486 71.4626L57.1468 71.4644Z" fill="#4E4E4E"/>
<path d="M63.6237 81.6206C63.5953 81.6206 63.5687 81.6135 63.5422 81.6011C63.4553 81.5568 63.4217 81.4486 63.466 81.3617C63.7973 80.7252 63.8346 79.8759 63.5758 78.9078C62.8582 76.2252 60.092 73.4593 57.4109 72.7394C56.4433 72.4805 55.5945 72.5178 54.9584 72.8493C54.8715 72.8937 54.7652 72.86 54.7191 72.7731C54.6748 72.6862 54.7085 72.5798 54.7953 72.5337C55.513 72.1614 56.4487 72.1135 57.503 72.3972C60.2922 73.1454 63.17 76.0249 63.9178 78.8156C64.1996 79.8706 64.1535 80.8085 63.7814 81.5249C63.7495 81.5851 63.6875 81.6206 63.6237 81.6206V81.6206Z" fill="#666666"/>
<path d="M17.5772 55.1617C18.9952 53.7429 18.1537 50.6006 15.6977 48.1432C13.2417 45.6858 10.1012 44.8439 8.68322 46.2626C7.26526 47.6814 8.10676 50.8237 10.5628 53.281C13.0188 55.7384 16.1593 56.5804 17.5772 55.1617Z" fill="black"/>
<path d="M16.3417 53.9256C17.3659 52.9008 16.7584 50.6314 14.9847 48.8568C13.211 47.0821 10.9429 46.4742 9.91871 47.499C8.89451 48.5237 9.50207 50.7931 11.2757 52.5678C13.0494 54.3425 15.3175 54.9504 16.3417 53.9256Z" fill="#D9EFF1"/>
<path d="M11.8763 48.2093H11.871H11.8692C11.8692 48.2093 11.8674 48.2093 11.8656 48.2093C11.8656 48.2093 11.8603 48.2093 11.8568 48.2093C11.6441 48.2128 11.4528 48.2554 11.2915 48.3298C11.2915 48.3298 11.2844 48.3334 11.2826 48.3334C11.2826 48.3334 11.2791 48.3334 11.2773 48.3352C11.2773 48.3352 11.2773 48.3352 11.2756 48.3352C11.2756 48.3352 11.272 48.3352 11.272 48.3369C11.272 48.3369 11.2667 48.3405 11.2649 48.3405C11.2649 48.3405 11.2631 48.3405 11.2614 48.3423L11.3482 48.4965C11.513 48.4043 11.7133 48.3582 11.9436 48.3582V48.1809L11.8763 48.2093ZM10.7315 48.8919C10.6819 49.0107 10.6482 49.1437 10.6341 49.2891C10.6341 49.2891 10.6341 49.2997 10.6341 49.305C10.6341 49.3086 10.6341 49.3121 10.6341 49.3174C10.6341 49.3174 10.6341 49.3263 10.6341 49.3298C10.6341 49.3334 10.6341 49.3369 10.6341 49.3405C10.6341 49.3405 10.6341 49.3476 10.6341 49.3493C10.6341 49.3493 10.6341 49.3547 10.6341 49.3582C10.6341 49.3582 10.6341 49.3635 10.6341 49.3671V49.3689V49.3724C10.6341 49.3724 10.6341 49.3777 10.6341 49.3795V49.383C10.6341 49.383 10.6341 49.3848 10.6341 49.3866C10.6341 49.3866 10.6341 49.3866 10.6341 49.3884C10.6341 49.3884 10.6341 49.3937 10.6341 49.3972C10.6341 49.3972 10.6341 49.4043 10.6341 49.4079C10.6341 49.4079 10.6341 49.415 10.6341 49.4185C10.6341 49.4185 10.6341 49.4203 10.6341 49.422C10.6341 49.422 10.6341 49.4327 10.6341 49.438C10.6341 49.438 10.6341 49.4486 10.6341 49.454L10.8113 49.4433C10.7953 49.2093 10.8255 49.0036 10.8999 48.8281L10.7369 48.7589L10.7315 48.8919ZM10.9442 50.2217L10.7776 50.2802C10.7776 50.2802 10.7776 50.2802 10.7776 50.282C10.7776 50.282 10.7776 50.2837 10.7776 50.2855V50.2891C10.7776 50.2891 10.7776 50.2891 10.7776 50.2908C10.7776 50.2908 10.7776 50.2908 10.7776 50.2926C10.7776 50.2926 10.7776 50.2926 10.7776 50.2944C10.7776 50.2944 10.7776 50.2944 10.7776 50.2962C10.7776 50.2962 10.7776 50.2979 10.7776 50.2997C10.7776 50.2997 10.7776 50.3015 10.7776 50.3032C10.7776 50.3032 10.7776 50.305 10.7776 50.3068C10.7776 50.3068 10.7776 50.3068 10.7776 50.3086C10.7776 50.3086 10.7776 50.3086 10.7776 50.3103C10.7776 50.3103 10.7776 50.3103 10.7776 50.3121C10.7776 50.3121 10.7776 50.3139 10.7776 50.3157C10.7776 50.3174 10.7794 50.321 10.7812 50.3228C10.8503 50.5018 10.9353 50.6791 11.0346 50.8529L11.1887 50.7642C11.0718 50.5603 10.9761 50.3529 10.907 50.1508L10.9442 50.2217ZM11.6087 51.399L11.4705 51.5089C11.4971 51.5408 11.5219 51.5745 11.5502 51.6064C11.5502 51.6064 11.5555 51.6118 11.5573 51.6153C11.5591 51.6189 11.5626 51.6206 11.5644 51.6242C11.5662 51.6259 11.5679 51.6295 11.5697 51.6313C11.5697 51.6313 11.5733 51.6366 11.575 51.6384C11.575 51.6384 11.575 51.6384 11.575 51.6401C11.5768 51.6419 11.5786 51.6437 11.5803 51.6472C11.5821 51.649 11.5839 51.6508 11.5857 51.6543C11.5857 51.6543 11.5892 51.6579 11.5892 51.6596C11.591 51.6614 11.5928 51.6632 11.5945 51.6667C11.5963 51.6685 11.5981 51.6703 11.5998 51.6738C11.5998 51.6738 11.6034 51.6774 11.6034 51.6791C11.6034 51.6791 11.6069 51.6827 11.6069 51.6845C11.6069 51.6845 11.6105 51.688 11.6105 51.6898C11.6105 51.6898 11.6105 51.6898 11.6105 51.6916C11.6122 51.6933 11.614 51.6951 11.6158 51.6986C11.6176 51.7004 11.6193 51.7022 11.6211 51.7057C11.6211 51.7057 11.6246 51.7093 11.6246 51.7111C11.6246 51.7111 11.6282 51.7146 11.6282 51.7164C11.6282 51.7164 11.6317 51.7199 11.6335 51.7217C11.6353 51.7235 11.6371 51.7252 11.6388 51.7288C11.6406 51.7306 11.6424 51.7323 11.6441 51.7359C11.6441 51.7359 11.6441 51.7359 11.6441 51.7376C11.6459 51.7394 11.6477 51.7412 11.6495 51.7447C11.6512 51.7465 11.653 51.7483 11.6548 51.7518C11.6565 51.7536 11.6583 51.7554 11.6601 51.7589C11.6619 51.7607 11.6636 51.7625 11.6654 51.766C11.6672 51.7678 11.6689 51.7696 11.6707 51.7731C11.6725 51.7749 11.6743 51.7767 11.676 51.7802C11.6778 51.782 11.6796 51.7837 11.6814 51.7873C11.6831 51.7891 11.6849 51.7908 11.6867 51.7944C11.6867 51.7944 11.6902 51.7979 11.6938 51.8015C11.6938 51.8015 11.6973 51.805 11.7008 51.8086C11.7026 51.8121 11.7062 51.8139 11.7079 51.8174C11.7079 51.8174 11.7133 51.8228 11.715 51.8263C11.7168 51.8281 11.7186 51.8298 11.7221 51.8334C11.7221 51.8334 11.7257 51.8369 11.7292 51.8405C11.731 51.8423 11.7327 51.844 11.7363 51.8476C11.7363 51.8476 11.7398 51.8511 11.7416 51.8529C11.7416 51.8529 11.7451 51.8564 11.7469 51.8582C11.7469 51.8582 11.7505 51.8618 11.7522 51.8653C11.7522 51.8653 11.7558 51.8689 11.7576 51.8724L11.7611 51.8759C11.7611 51.8759 11.7646 51.8795 11.7646 51.8813L11.7682 51.8848C11.7682 51.8848 11.7682 51.8848 11.7717 51.8866C11.7717 51.8866 11.7717 51.8884 11.7735 51.8901L11.8958 51.7625C11.731 51.6029 11.575 51.4327 11.435 51.2554L11.6087 51.399ZM12.5922 52.3476L12.4876 52.4912C12.4876 52.4912 12.4912 52.493 12.493 52.4947C12.493 52.4947 12.4947 52.4947 12.4965 52.4965C12.4965 52.4965 12.4965 52.4965 12.4983 52.4965C12.4983 52.4965 12.5 52.4965 12.5018 52.4983C12.5018 52.4983 12.5036 52.4983 12.5054 52.5001C12.5054 52.5001 12.5054 52.5001 12.5071 52.5001C12.5071 52.5001 12.5071 52.5001 12.5089 52.5001C12.5089 52.5001 12.5107 52.5001 12.5124 52.5018C12.5124 52.5018 12.5142 52.5018 12.516 52.5036C12.516 52.5036 12.5178 52.5054 12.5195 52.5054C12.5195 52.5054 12.5213 52.5054 12.5231 52.5072C12.5231 52.5072 12.5231 52.5072 12.5248 52.5072C12.5248 52.5072 12.5266 52.5072 12.5284 52.5089C12.5284 52.5089 12.5302 52.5089 12.5319 52.5107C12.5319 52.5107 12.5319 52.5107 12.5337 52.5107C12.5337 52.5107 12.5355 52.5107 12.5373 52.5125C12.5373 52.5125 12.5373 52.5125 12.539 52.5125C12.539 52.5125 12.5408 52.5125 12.5426 52.5142C12.5426 52.5142 12.5443 52.5142 12.5461 52.516C12.5461 52.516 12.5461 52.516 12.5479 52.516C12.5479 52.516 12.5497 52.516 12.5514 52.5178C12.5514 52.5178 12.5532 52.5178 12.555 52.5196C12.555 52.5196 12.555 52.5196 12.5567 52.5196C12.5567 52.5196 12.5585 52.5196 12.5603 52.5213C12.5603 52.5213 12.5621 52.5213 12.5638 52.5231C12.5638 52.5231 12.5638 52.5231 12.5656 52.5231C12.5656 52.5231 12.5674 52.5231 12.5692 52.5249C12.5692 52.5249 12.5709 52.5249 12.5727 52.5267C12.5727 52.5267 12.5745 52.5267 12.5762 52.5284C12.5762 52.5284 12.5762 52.5284 12.578 52.5284H12.5798C12.5798 52.5284 12.5816 52.5284 12.5833 52.5302C12.5833 52.5302 12.5833 52.5302 12.5851 52.5302C12.695 52.5993 12.8084 52.665 12.92 52.7217L13.0015 52.5639C12.8066 52.4646 12.6117 52.344 12.4238 52.2057L12.5922 52.3476ZM13.7954 52.954L13.7476 53.1242C13.7564 53.1259 13.7653 53.1295 13.7741 53.1313C13.9903 53.1898 14.1941 53.2164 14.3784 53.2164H14.3837H14.3855C14.3855 53.2164 14.3855 53.2164 14.3873 53.2164C14.3873 53.2164 14.3873 53.2164 14.389 53.2164H14.3908C14.3908 53.2164 14.3908 53.2164 14.3944 53.2164H14.3979C14.405 53.2164 14.4139 53.2164 14.4209 53.2164L14.4139 53.0391C14.3944 53.0391 14.3731 53.0391 14.3518 53.0391C14.1782 53.0391 13.9903 53.0125 13.7936 52.9593L13.7688 52.9522L13.7954 52.954ZM15.3814 52.4132C15.3105 52.61 15.1918 52.766 15.0252 52.8724L15.1209 53.0213C15.1209 53.0213 15.1209 53.0213 15.1227 53.0213C15.1227 53.0213 15.1244 53.0213 15.1262 53.0196C15.1262 53.0196 15.128 53.0196 15.1298 53.0178C15.1298 53.0178 15.1315 53.0178 15.1333 53.016C15.1333 53.016 15.1333 53.016 15.1351 53.016C15.1351 53.016 15.1369 53.016 15.1386 53.0142C15.1386 53.0142 15.1386 53.0142 15.1404 53.0142C15.1404 53.0142 15.1404 53.0142 15.1422 53.0142C15.1422 53.0142 15.1422 53.0142 15.1439 53.0142C15.1439 53.0142 15.1439 53.0142 15.1457 53.0142C15.1457 53.0142 15.1457 53.0142 15.1457 53.0125C15.1457 53.0125 15.1457 53.0125 15.1457 53.0107C15.1457 53.0107 15.1457 53.0107 15.1457 53.0089C15.1457 53.0089 15.1457 53.0089 15.1457 53.0072C15.1457 53.0072 15.1457 53.0072 15.1457 53.0054C15.1457 53.0054 15.1457 53.0054 15.1457 53.0036C15.1457 53.0036 15.1457 53.0036 15.1457 53.0018C15.1457 53.0018 15.1457 53.0018 15.1457 53.0001C15.1457 53.0001 15.1457 53.0001 15.1457 52.9983C15.1457 52.9983 15.1457 52.9983 15.1457 52.9965C15.1457 52.9965 15.1457 52.9965 15.1457 52.9947C15.1457 52.9947 15.1457 52.993 15.1475 52.9912C15.1475 52.9912 15.1475 52.9912 15.1475 52.9894C15.1475 52.9894 15.1475 52.9894 15.1475 52.9876C15.1475 52.9876 15.1475 52.9876 15.1475 52.9859V52.9823H15.1493C15.1493 52.9823 15.1493 52.9806 15.151 52.9788C15.151 52.9788 15.151 52.977 15.1528 52.9752C15.1528 52.9752 15.1528 52.9752 15.1528 52.9735C15.1528 52.9735 15.1528 52.9717 15.1546 52.9699C15.1546 52.9699 15.1546 52.9699 15.1546 52.9681C15.1546 52.9681 15.1546 52.9664 15.1563 52.9646C15.1563 52.9646 15.1563 52.9646 15.1563 52.9628C15.1563 52.9628 15.1563 52.9611 15.1581 52.9593C15.1581 52.9593 15.1581 52.9593 15.1581 52.9575C15.1581 52.9575 15.1581 52.9557 15.1599 52.954C15.1599 52.954 15.1599 52.954 15.1599 52.9522C15.1599 52.9522 15.1599 52.9504 15.1617 52.9486C15.1617 52.9486 15.1617 52.9486 15.1617 52.9469C15.1617 52.9469 15.1617 52.9469 15.1617 52.9451C15.1617 52.9451 15.1617 52.9451 15.1617 52.9433C15.1617 52.9433 15.1617 52.9433 15.1617 52.9415C15.1617 52.9415 15.1617 52.9415 15.1617 52.9398C15.1617 52.9398 15.1617 52.9398 15.1617 52.938C15.1617 52.938 15.1617 52.938 15.1617 52.9362C15.1617 52.9362 15.1617 52.9345 15.1617 52.9327C15.1617 52.9327 15.1617 52.9309 15.1617 52.9291C15.1617 52.9291 15.1617 52.9256 15.1634 52.9256C15.1634 52.9256 15.1634 52.922 15.1652 52.922C15.1652 52.9203 15.1652 52.9185 15.167 52.9167C15.1776 52.8937 15.1865 52.8706 15.1953 52.8458L15.0288 52.7855L15.3814 52.4132ZM15.4558 51.0852L15.2892 51.1472C15.3211 51.2359 15.3495 51.3228 15.3725 51.4096C15.408 51.5408 15.431 51.6703 15.4434 51.7908L15.6206 51.7731C15.6153 51.7181 15.6082 51.6614 15.5976 51.6047C15.5976 51.5976 15.5958 51.5905 15.594 51.5852C15.5852 51.5444 15.5763 51.5018 15.5657 51.4593C15.5657 51.4593 15.5657 51.4593 15.5657 51.4575C15.5657 51.4575 15.5657 51.4575 15.5657 51.4557C15.5657 51.4557 15.5657 51.454 15.5657 51.4522C15.5657 51.4522 15.5657 51.4522 15.5657 51.4504C15.5657 51.4504 15.5657 51.4504 15.5657 51.4486C15.5657 51.4486 15.5657 51.4486 15.5657 51.4469C15.5657 51.4469 15.5657 51.4451 15.5657 51.4433C15.5657 51.4433 15.5657 51.4433 15.5657 51.4415C15.5657 51.4415 15.5657 51.4415 15.5657 51.4398C15.5657 51.4398 15.5657 51.4398 15.5657 51.438C15.5657 51.438 15.5657 51.4345 15.5657 51.4327C15.5657 51.4327 15.5657 51.4327 15.5657 51.4309C15.5568 51.4043 15.5497 51.3777 15.5409 51.3511C15.5409 51.3511 15.5409 51.3511 15.5409 51.3493C15.5409 51.3493 15.5409 51.3458 15.5391 51.344C15.5391 51.344 15.5391 51.344 15.5391 51.3423V51.3405V51.3387C15.5391 51.3387 15.5391 51.3387 15.5391 51.3369C15.5391 51.3369 15.5391 51.3369 15.5391 51.3352C15.5391 51.3352 15.5391 51.3352 15.5391 51.3334C15.5391 51.3334 15.5391 51.3334 15.5391 51.3316C15.5338 51.3157 15.5267 51.2979 15.5214 51.282L15.4558 51.0852ZM14.7417 49.8671L14.6035 49.9788C14.7505 50.1596 14.8817 50.3476 14.9951 50.5373L15.1475 50.4469C15.0943 50.3564 15.0376 50.2678 14.9756 50.1791C14.9738 50.1756 14.972 50.1738 14.9685 50.1703C14.9685 50.1685 14.965 50.165 14.9632 50.1632C14.9632 50.1632 14.9614 50.1596 14.9596 50.1579C14.9596 50.1579 14.9579 50.1543 14.9561 50.1525C14.9561 50.1525 14.9561 50.1508 14.9543 50.149C14.9543 50.149 14.9543 50.1472 14.9543 50.1455C14.9543 50.1455 14.9543 50.1454 14.9543 50.1437C14.9543 50.1437 14.9543 50.1437 14.9543 50.1419C14.9543 50.1419 14.9543 50.1419 14.9543 50.1401C14.9543 50.1401 14.9543 50.1401 14.9543 50.1384C14.9543 50.1384 14.9543 50.1384 14.9543 50.1366C14.9543 50.1366 14.9543 50.1366 14.9543 50.1348C14.9543 50.1348 14.9543 50.1348 14.9543 50.133C14.9543 50.133 14.9543 50.133 14.9543 50.1313C14.9543 50.1313 14.9543 50.1313 14.9543 50.1295C14.9543 50.1295 14.9543 50.1295 14.9543 50.1277C14.9543 50.1277 14.9543 50.1277 14.9543 50.1259C14.9543 50.1259 14.9526 50.1224 14.9508 50.1224C14.9508 50.1224 14.9508 50.1224 14.9508 50.1206C14.9508 50.1206 14.9508 50.1206 14.9508 50.1189C14.9508 50.1171 14.9472 50.1153 14.9455 50.1118C14.9455 50.1118 14.9455 50.1118 14.9455 50.11C14.9455 50.1082 14.9419 50.1064 14.9402 50.1029C14.9402 50.1029 14.9402 50.1029 14.9402 50.1011C14.9402 50.1011 14.9402 50.1011 14.9402 50.0993C14.9402 50.0993 14.9384 50.0958 14.9366 50.094C14.9366 50.094 14.9366 50.094 14.9366 50.0923C14.9366 50.0923 14.9366 50.0923 14.9366 50.0905C14.9366 50.0905 14.9331 50.0852 14.9313 50.0834C14.9313 50.0834 14.9313 50.0834 14.9313 50.0816C14.9313 50.0816 14.9277 50.0763 14.926 50.0745C14.926 50.0745 14.926 50.0745 14.926 50.0728C14.9242 50.0692 14.9207 50.0674 14.9189 50.0639C14.9189 50.0639 14.9136 50.0586 14.9118 50.055C14.9012 50.0408 14.8905 50.0284 14.8817 50.016C14.864 49.993 14.8445 49.9699 14.825 49.9451L14.7417 49.8671ZM13.7104 48.899L13.6076 49.0444C13.7901 49.1738 13.9691 49.3192 14.1374 49.4788L14.2579 49.3493C14.2384 49.3298 14.2172 49.3121 14.1977 49.2944C14.1959 49.2926 14.1941 49.2908 14.1906 49.2891C14.1906 49.2891 14.187 49.2855 14.1853 49.2855C14.1853 49.2855 14.1853 49.2855 14.1835 49.2837H14.1817V49.282C14.1817 49.282 14.1817 49.282 14.1799 49.282C14.1799 49.282 14.1764 49.2802 14.1764 49.2784C14.1746 49.2767 14.1729 49.2749 14.1711 49.2731C14.1711 49.2731 14.1711 49.2731 14.1693 49.2731C14.1693 49.2731 14.1693 49.2731 14.1675 49.2731C14.0382 49.1596 13.9053 49.0533 13.7671 48.954C13.7671 48.954 13.7617 48.9504 13.7582 48.9469C13.7582 48.9469 13.7582 48.9469 13.7564 48.9469C13.7564 48.9469 13.7564 48.9469 13.7547 48.9469C13.7547 48.9469 13.7511 48.9451 13.7511 48.9433L13.7104 48.899ZM12.4398 48.2873L12.3955 48.4593L12.4327 48.4681C12.6259 48.5196 12.8243 48.5958 13.0246 48.6933L13.1025 48.5337C13.0884 48.5267 13.0742 48.5196 13.06 48.5142C13.06 48.5142 13.06 48.5142 13.0582 48.5142C13.0582 48.5142 13.0565 48.5142 13.0547 48.5125C13.0547 48.5125 13.0529 48.5125 13.0511 48.5107C13.0511 48.5107 13.0511 48.5107 13.0494 48.5107C13.0494 48.5107 13.0476 48.5107 13.0458 48.5107C13.0458 48.5107 13.0458 48.5107 13.0441 48.5107C13.0441 48.5107 13.0441 48.5107 13.0423 48.5107C13.0423 48.5107 13.0423 48.5107 13.0405 48.5107C13.0405 48.5107 13.0405 48.5107 13.0387 48.5107C13.0387 48.5107 13.037 48.5107 13.0352 48.5107C13.0352 48.5107 13.0334 48.5107 13.0317 48.5107C13.0317 48.5107 13.0317 48.5107 13.0299 48.5107C13.0299 48.5107 13.0281 48.5107 13.0263 48.5107C12.9058 48.4575 12.7836 48.4114 12.6631 48.3724H12.6595C12.6578 48.3724 12.656 48.3724 12.6542 48.3706C12.6542 48.3706 12.6524 48.3706 12.6507 48.3706C12.6507 48.3706 12.6507 48.3706 12.6489 48.3706H12.6453C12.6453 48.3706 12.6436 48.3706 12.6418 48.3706C12.6418 48.3706 12.6418 48.3706 12.64 48.3706C12.64 48.3706 12.64 48.3706 12.6383 48.3706C12.6383 48.3706 12.6365 48.3706 12.6347 48.3706C12.6347 48.3706 12.6347 48.3706 12.6329 48.3706C12.6329 48.3706 12.6205 48.3671 12.6152 48.3653C12.6135 48.3653 12.6099 48.3653 12.6081 48.3635C12.6064 48.3635 12.6046 48.3635 12.6028 48.3635L12.4398 48.2873Z" fill="#4E4E4E"/>
<path d="M13.9109 51.4934C14.16 51.2441 14.0124 50.6923 13.5813 50.261C13.1502 49.8296 12.5987 49.682 12.3496 49.9312C12.1005 50.1805 12.248 50.7323 12.6791 51.1636C13.1103 51.595 13.6617 51.7426 13.9109 51.4934Z" fill="black"/>
<path d="M17.8109 54.6009C18.0607 53.9431 18.066 53.1257 17.8233 52.2179C17.0826 49.4537 14.2331 46.6026 11.4705 45.8615C11.0275 45.7427 10.6022 45.6824 10.2088 45.6824C9.81538 45.6824 9.42199 45.7463 9.08884 45.8739C9.51414 45.264 10.23 44.9307 11.1356 44.9307C11.5148 44.9307 11.9241 44.9892 12.353 45.1044C15.0607 45.8296 17.8552 48.6257 18.5799 51.3349C18.9716 52.7959 18.6827 53.9927 17.8109 54.6009V54.6009Z" fill="#4E4E4E"/>
<path d="M11.1356 45.0194C11.5077 45.0194 11.9099 45.0761 12.3299 45.1896C15.011 45.9077 17.7754 48.6754 18.4949 51.3581C18.8387 52.6453 18.6473 53.718 17.9863 54.3439C18.1476 53.7251 18.1228 52.9928 17.9101 52.1949C17.1623 49.4042 14.2845 46.5247 11.4953 45.7765C11.0452 45.6559 10.6128 45.5939 10.2106 45.5939C9.90222 45.5939 9.61337 45.6293 9.34756 45.6985C9.764 45.257 10.3824 45.0194 11.1373 45.0194M11.1373 44.8421C10.0688 44.8421 9.27314 45.2907 8.86911 46.0691C9.24478 45.874 9.69489 45.7694 10.2106 45.7694C10.5915 45.7694 11.0062 45.8261 11.451 45.9449C14.1906 46.679 17.0064 49.4964 17.74 52.2375C18.02 53.2836 17.9562 54.1666 17.6177 54.8191C18.6739 54.2712 19.1222 53.0035 18.6685 51.3084C17.9349 48.5673 15.1191 45.7499 12.3795 45.0159C11.9348 44.8971 11.5201 44.8403 11.1391 44.8403L11.1373 44.8421Z" fill="#4E4E4E"/>
<path d="M17.616 55C17.5876 55 17.561 54.9929 17.5344 54.9805C17.4476 54.9362 17.4139 54.828 17.4582 54.7411C17.7896 54.1046 17.8268 53.2553 17.5681 52.2872C16.8504 49.6046 14.0843 46.8387 11.4031 46.1188C10.4356 45.8599 9.58679 45.8972 8.95063 46.2287C8.8638 46.2731 8.75747 46.2394 8.7114 46.1525C8.6671 46.0656 8.70077 45.9592 8.7876 45.9131C9.50351 45.5408 10.4409 45.4929 11.4953 45.7766C14.2845 46.5248 17.1623 49.4043 17.9101 52.195C18.1936 53.25 18.1458 54.1879 17.7737 54.9043C17.7418 54.9645 17.6797 55 17.616 55V55Z" fill="#666666"/>
<path d="M82.1929 92.4966C83.6108 91.0778 82.7693 87.9356 80.3133 85.4782C77.8573 83.0208 74.7168 82.1788 73.2989 83.5976C71.8809 85.0164 72.7224 88.1586 75.1784 90.616C77.6344 93.0734 80.7749 93.9154 82.1929 92.4966Z" fill="black"/>
<path d="M80.9574 91.2606C81.9816 90.2358 81.374 87.9664 79.6003 86.1917C77.8267 84.417 75.5586 83.8091 74.5344 84.8339C73.5102 85.8587 74.1177 88.1281 75.8914 89.9028C77.665 91.6774 79.9332 92.2854 80.9574 91.2606Z" fill="#D9EFF1"/>
<path d="M76.4941 85.5426H76.4905H76.487C76.487 85.5426 76.487 85.5426 76.4852 85.5426C76.4852 85.5426 76.4835 85.5426 76.4817 85.5426C76.4817 85.5426 76.4781 85.5426 76.4764 85.5426C76.4746 85.5426 76.4728 85.5426 76.4693 85.5426H76.464C76.464 85.5426 76.4586 85.5426 76.4569 85.5426C76.4569 85.5426 76.4516 85.5426 76.4498 85.5426C76.4498 85.5426 76.4445 85.5426 76.4409 85.5426C76.4374 85.5426 76.4338 85.5426 76.4285 85.5426C76.425 85.5426 76.4214 85.5426 76.4179 85.5426C76.4179 85.5426 76.4108 85.5426 76.4055 85.5426C76.324 85.5515 76.2442 85.5657 76.1698 85.5869C76.1574 85.5905 76.145 85.594 76.1326 85.5976C76.129 85.5976 76.1255 85.5994 76.1202 85.6011C76.1202 85.6011 76.1131 85.6029 76.1096 85.6047C76.106 85.6047 76.1042 85.6047 76.1025 85.6065C76.1007 85.6065 76.0971 85.6082 76.0954 85.61C76.0936 85.61 76.0918 85.61 76.0883 85.6118C76.0865 85.6118 76.0847 85.6118 76.0812 85.6135C76.0794 85.6135 76.0777 85.6135 76.0741 85.6153C76.0723 85.6153 76.0706 85.6153 76.0688 85.6171H76.0653C76.0653 85.6171 76.0617 85.6171 76.0599 85.6189H76.0564C76.0564 85.6189 76.0546 85.6189 76.0528 85.6189C76.0528 85.6189 76.0511 85.6189 76.0493 85.6189C76.0493 85.6189 76.0493 85.6189 76.0475 85.6189C76.0475 85.6189 76.0475 85.6189 76.0458 85.6189C76.0458 85.6189 76.0458 85.6189 76.044 85.6189L76.1308 85.7731C76.2956 85.6809 76.4959 85.6348 76.7262 85.6348V85.4575L76.4941 85.5426ZM75.3493 86.2252C75.3423 86.2412 75.3352 86.2589 75.3299 86.2749C75.3299 86.2767 75.3298 86.2784 75.3281 86.282C75.3281 86.282 75.3281 86.282 75.3281 86.2838C75.3281 86.2838 75.3281 86.2873 75.3281 86.2891C75.3281 86.2909 75.3281 86.2944 75.3263 86.2962C75.3263 86.2962 75.3263 86.3015 75.3245 86.305C75.3245 86.305 75.3245 86.3121 75.3228 86.3157C75.3228 86.3157 75.3228 86.3228 75.321 86.3263C75.321 86.3263 75.321 86.3316 75.3192 86.3352C75.3192 86.3352 75.3192 86.3423 75.3174 86.3458C75.3174 86.3458 75.3174 86.3511 75.3157 86.3547C75.3157 86.3547 75.3157 86.3582 75.3157 86.36C75.3157 86.36 75.3157 86.3618 75.3157 86.3635C75.3157 86.3635 75.3157 86.3653 75.3157 86.3671C75.3157 86.3689 75.3157 86.3724 75.3157 86.3742C75.3157 86.3795 75.3157 86.3831 75.3157 86.3884C75.3157 86.3884 75.3157 86.3884 75.3157 86.3901C75.3068 86.4841 75.305 86.5816 75.3121 86.6845L75.4893 86.6738C75.4734 86.4398 75.5035 86.2341 75.5779 86.0586L75.4149 85.9894L75.3493 86.2252ZM75.562 87.555L75.3954 87.6135C75.3954 87.6135 75.3954 87.6153 75.3954 87.6171C75.3954 87.6171 75.3954 87.6189 75.3954 87.6206C75.3954 87.6206 75.3954 87.6224 75.3954 87.6242V87.6277C75.3954 87.6277 75.3954 87.6295 75.3954 87.6313C75.3954 87.6313 75.3954 87.6313 75.3954 87.633C75.3954 87.633 75.3954 87.6348 75.3954 87.6366C75.3954 87.6366 75.3954 87.6384 75.3954 87.6401C75.3954 87.6401 75.3954 87.6419 75.3954 87.6437C75.3954 87.6437 75.3954 87.6455 75.3954 87.6472C75.3954 87.6472 75.3954 87.6472 75.3954 87.649C75.3954 87.649 75.3954 87.649 75.3954 87.6508C75.3954 87.6508 75.3954 87.6508 75.3954 87.6526C75.3954 87.6526 75.3954 87.6526 75.3954 87.6543C75.3954 87.6543 75.3954 87.6543 75.3954 87.6561C75.3954 87.6561 75.3954 87.6561 75.3954 87.6579C75.3954 87.6579 75.3954 87.6579 75.3954 87.6596C75.3954 87.6596 75.3954 87.6596 75.3954 87.6614C75.3954 87.6614 75.3954 87.6632 75.3954 87.665C75.3954 87.665 75.3954 87.6667 75.3954 87.6685C75.3954 87.6685 75.3954 87.6685 75.3954 87.6703C75.3954 87.6703 75.3954 87.6703 75.3954 87.6721V87.6738C75.3954 87.6738 75.3954 87.6756 75.3954 87.6774C75.3954 87.6774 75.3954 87.6791 75.3954 87.6809C75.3954 87.6809 75.3954 87.6827 75.3954 87.6845C75.4574 87.8405 75.5336 87.9948 75.6187 88.1472C75.6187 88.1472 75.6187 88.149 75.6205 88.1508C75.6205 88.1508 75.6205 88.1526 75.6222 88.1543C75.6222 88.1543 75.6222 88.1561 75.624 88.1579C75.624 88.1579 75.624 88.1579 75.624 88.1596L75.7782 88.071C75.6612 87.8671 75.5655 87.6596 75.4964 87.4575L75.562 87.555ZM76.2265 88.7323L76.0883 88.8423C76.2336 89.0267 76.3931 89.2022 76.565 89.3671L76.6872 89.2394C76.5224 89.0799 76.3665 88.9096 76.2265 88.7323V88.7323ZM77.21 89.6809L77.1054 89.8245C77.2313 89.9167 77.3606 90.0018 77.4917 90.0781C77.4917 90.0781 77.4935 90.0781 77.4953 90.0799C77.4953 90.0799 77.4953 90.0799 77.4971 90.0799C77.4971 90.0799 77.4988 90.0799 77.5006 90.0816C77.5006 90.0816 77.5024 90.0816 77.5042 90.0834C77.5042 90.0834 77.5059 90.0834 77.5077 90.0852C77.5077 90.0852 77.5077 90.0852 77.5095 90.0852C77.5095 90.0852 77.5095 90.0852 77.5112 90.0852C77.5112 90.0852 77.513 90.0852 77.5148 90.087C77.5166 90.087 77.5183 90.0887 77.5201 90.0905C77.5679 90.1171 77.6176 90.1437 77.6672 90.1685L77.7487 90.0107C77.5538 89.9114 77.3588 89.7909 77.171 89.6526L77.21 89.6809ZM78.4132 90.2873L78.3654 90.4575C78.3671 90.4575 78.3689 90.4575 78.3707 90.4575C78.5869 90.516 78.7907 90.5426 78.975 90.5426H78.9785C78.9785 90.5426 78.9785 90.5426 78.9803 90.5426C78.9803 90.5426 78.9803 90.5426 78.982 90.5426C78.982 90.5426 78.9838 90.5426 78.9856 90.5426C78.9856 90.5426 78.9874 90.5426 78.9891 90.5426H78.9927C78.9927 90.5426 79.0086 90.5426 79.0157 90.5426L79.0086 90.3653C78.9891 90.3653 78.9679 90.3653 78.9466 90.3653C78.7729 90.3653 78.5851 90.3387 78.3884 90.2855L78.3636 90.2784L78.4132 90.2873ZM79.9992 89.7465C79.9283 89.9433 79.8096 90.0994 79.643 90.2057L79.7387 90.3547C79.7387 90.3547 79.7405 90.3547 79.7423 90.3529C79.7423 90.3529 79.7493 90.3476 79.7529 90.3458C79.8309 90.2926 79.9017 90.2323 79.9638 90.1614C79.9638 90.1614 79.9655 90.1579 79.9673 90.1579C79.9673 90.1579 79.9691 90.1543 79.9709 90.1543C79.9709 90.1543 79.9726 90.1526 79.9744 90.1508C79.9744 90.1508 79.9762 90.149 79.9779 90.1472C79.9779 90.1472 79.9797 90.1455 79.9815 90.1437C79.9815 90.1437 79.9833 90.1419 79.985 90.1401C79.985 90.1401 79.9868 90.1384 79.9886 90.1366C79.9886 90.1366 79.9886 90.1366 79.9903 90.1348C79.9903 90.1348 79.9903 90.1348 79.9921 90.1331C79.9921 90.1331 79.9921 90.133 79.9939 90.1313C79.9939 90.1313 79.9939 90.1313 79.9957 90.1295C79.9957 90.1295 79.9957 90.1295 79.9957 90.1277C79.9957 90.1277 79.9957 90.1277 79.9957 90.126C79.9957 90.126 79.9957 90.126 79.9957 90.1242C79.9957 90.1242 79.9957 90.1242 79.9957 90.1224C79.9957 90.1224 79.9957 90.1206 79.9957 90.1189C79.9957 90.1189 79.9957 90.1171 79.9957 90.1153C79.9957 90.1153 79.9957 90.1118 79.9974 90.1118C79.9974 90.11 79.9974 90.1082 79.9992 90.1065C80.0116 90.0799 80.0222 90.0515 80.0311 90.0231L79.8645 89.9628L79.9992 89.7465ZM80.0736 88.4185L79.9071 88.4806C79.939 88.5692 79.9673 88.6561 79.9903 88.743C80.0258 88.8742 80.0488 89.0036 80.0612 89.1242L80.2384 89.1065C80.2349 89.0763 80.2313 89.0444 80.2278 89.0125C80.2225 88.977 80.2154 88.9416 80.2083 88.9061C80.2083 88.9061 80.2083 88.9026 80.2083 88.9008C80.2065 88.8884 80.203 88.876 80.1994 88.8635C80.1994 88.86 80.1994 88.8565 80.1977 88.8529C80.1977 88.8529 80.1977 88.8529 80.1977 88.8511C80.1817 88.7944 80.164 88.7377 80.1463 88.6809C80.1463 88.6809 80.1463 88.6809 80.1463 88.6791C80.1463 88.6774 80.1463 88.6738 80.1445 88.6721C80.1445 88.6721 80.1445 88.6721 80.1445 88.6703C80.1445 88.6703 80.1445 88.6667 80.1427 88.665C80.1427 88.665 80.1427 88.665 80.1427 88.6632C80.1427 88.6632 80.1427 88.6614 80.1427 88.6596C80.1427 88.6596 80.1427 88.6596 80.1427 88.6579C80.1427 88.6579 80.1427 88.6579 80.1427 88.6561C80.1427 88.6561 80.1427 88.6561 80.1427 88.6543C80.1427 88.6543 80.1427 88.6526 80.1427 88.6508C80.1427 88.6508 80.1427 88.6508 80.1427 88.649C80.1427 88.649 80.1427 88.649 80.1427 88.6472V88.6419H80.141C80.141 88.6419 80.141 88.6419 80.141 88.6401C80.141 88.6401 80.141 88.6401 80.141 88.6384C80.141 88.6384 80.1392 88.6331 80.1374 88.6313C80.1374 88.6313 80.1356 88.6242 80.1339 88.6206C80.1339 88.6206 80.1303 88.61 80.1286 88.6047L80.0736 88.4185ZM79.3595 87.2004L79.2213 87.3121C79.3684 87.493 79.4995 87.6809 79.6129 87.8706L79.7653 87.7802C79.7653 87.7802 79.7653 87.7802 79.7653 87.7784C79.7653 87.7784 79.7653 87.7784 79.7653 87.7767C79.7653 87.7767 79.7635 87.7731 79.7617 87.7713C79.7617 87.7696 79.7582 87.766 79.7564 87.7643C79.7547 87.7607 79.7529 87.7589 79.7511 87.7554C79.698 87.6685 79.6412 87.5816 79.581 87.4965C79.581 87.4948 79.5775 87.4912 79.5757 87.4894C79.5739 87.4859 79.5721 87.4841 79.5686 87.4806C79.5686 87.4788 79.565 87.4752 79.5633 87.4735C79.5633 87.4717 79.5597 87.4682 79.558 87.4664C79.558 87.4664 79.5562 87.4628 79.5544 87.4611C79.5544 87.4611 79.5526 87.4575 79.5509 87.4557C79.5509 87.4557 79.5509 87.454 79.5491 87.4522C79.5491 87.4522 79.5491 87.4504 79.5473 87.4487C79.5473 87.4487 79.5473 87.4487 79.5473 87.4469C79.5473 87.4469 79.5473 87.4469 79.5473 87.4451C79.5473 87.4451 79.5473 87.4451 79.5473 87.4433C79.5473 87.4433 79.5473 87.4433 79.5473 87.4416C79.5473 87.4416 79.5473 87.4416 79.5473 87.4398C79.5473 87.4398 79.5473 87.4398 79.5473 87.438C79.5473 87.438 79.5473 87.438 79.5473 87.4362C79.5473 87.4362 79.5473 87.4362 79.5473 87.4345C79.5473 87.4345 79.5473 87.4345 79.5473 87.4327C79.5473 87.4327 79.5473 87.4327 79.5473 87.4309C79.5473 87.4309 79.5473 87.4309 79.5473 87.4292C79.5473 87.4292 79.5473 87.4291 79.5473 87.4274C79.5473 87.4274 79.5473 87.4274 79.5473 87.4256C79.5473 87.4256 79.5473 87.4256 79.5473 87.4238C79.5473 87.4238 79.5473 87.4221 79.5456 87.4203C79.5456 87.4203 79.5456 87.4185 79.5438 87.4167C79.5438 87.4167 79.542 87.4132 79.5402 87.4114C79.5385 87.4096 79.5367 87.4061 79.5349 87.4043C79.5349 87.4043 79.5332 87.4026 79.5314 87.4008L79.3595 87.2004ZM78.3282 86.2323L78.2254 86.3777C78.4079 86.5072 78.5869 86.6526 78.7552 86.8121L78.8757 86.6827C78.8403 86.649 78.8048 86.6171 78.7676 86.5834C78.7641 86.5816 78.7623 86.5781 78.7588 86.5763C78.757 86.5745 78.7535 86.5728 78.7517 86.571C78.7499 86.5692 78.7481 86.5674 78.7446 86.5657C78.7446 86.5657 78.741 86.5621 78.7393 86.5621C78.7393 86.5621 78.7357 86.5604 78.7357 86.5586C78.7357 86.5586 78.7357 86.5586 78.734 86.5586C78.734 86.5586 78.734 86.5586 78.7322 86.5586C78.7322 86.5586 78.7322 86.5586 78.7304 86.5586C78.7304 86.5586 78.7269 86.5568 78.7269 86.555C78.7269 86.555 78.7269 86.555 78.7251 86.5533C78.7251 86.5533 78.7233 86.5533 78.7216 86.5515C78.7216 86.5515 78.718 86.5497 78.7162 86.5479C78.7162 86.5479 78.7145 86.5462 78.7127 86.5462C78.7127 86.5462 78.7091 86.5444 78.7074 86.5426C78.7056 86.5409 78.7021 86.5391 78.7003 86.5373C78.6985 86.5355 78.695 86.5338 78.6932 86.532C78.6914 86.5302 78.6879 86.5284 78.6861 86.5267C78.6135 86.4682 78.539 86.4132 78.4628 86.3582L78.3282 86.2323ZM77.0576 85.6206L77.0133 85.7926L77.0505 85.8015C77.2437 85.8529 77.4421 85.9291 77.6424 86.0267L77.7203 85.8671C77.5538 85.7855 77.3872 85.7182 77.2189 85.665C77.2189 85.665 77.2171 85.665 77.2153 85.665C77.2153 85.665 77.2153 85.665 77.2135 85.665C77.2135 85.665 77.2135 85.665 77.2118 85.665C77.2118 85.665 77.21 85.665 77.2082 85.665C77.2082 85.665 77.2082 85.665 77.2065 85.665C77.2065 85.665 77.2064 85.665 77.2047 85.665C77.2047 85.665 77.2029 85.665 77.2011 85.665C77.2011 85.665 77.2011 85.665 77.1994 85.665C77.1994 85.665 77.1994 85.665 77.1976 85.665C77.1976 85.665 77.1958 85.665 77.194 85.665C77.194 85.665 77.1852 85.6632 77.1816 85.6614C77.1746 85.6596 77.1675 85.6579 77.1604 85.6561L77.0576 85.6206Z" fill="#4E4E4E"/>
<path d="M78.5265 88.8283C78.7756 88.5791 78.6281 88.0273 78.197 87.5959C77.7658 87.1645 77.2144 87.0169 76.9652 87.2662C76.7161 87.5155 76.8636 88.0672 77.2948 88.4986C77.7259 88.93 78.2774 89.0776 78.5265 88.8283Z" fill="black"/>
<path d="M82.5155 91.8226C82.7654 91.1648 82.7707 90.3474 82.5279 89.4396C81.7872 86.6754 78.9377 83.8243 76.1751 83.0832C75.7321 82.9644 75.3068 82.9041 74.9134 82.9041C74.52 82.9041 74.1266 82.9679 73.7935 83.0956C74.2188 82.4857 74.9347 82.1523 75.8402 82.1523C76.2194 82.1523 76.6288 82.2109 77.0576 82.3261C79.7653 83.0513 82.558 85.8474 83.2846 88.5566C83.6762 90.0176 83.3874 91.2144 82.5155 91.8226Z" fill="#4E4E4E"/>
<path d="M75.8384 82.2428C76.2105 82.2428 76.6128 82.2995 77.0328 82.413C79.7139 83.1311 82.4783 85.8988 83.1977 88.5815C83.5415 89.8687 83.3501 90.9414 82.6892 91.5673C82.8504 90.9485 82.8256 90.2162 82.613 89.4183C81.8652 86.6276 78.9873 83.7481 76.1981 82.9999C75.748 82.8793 75.3157 82.8173 74.9134 82.8173C74.6051 82.8173 74.3162 82.8527 74.0504 82.9219C74.4668 82.4804 75.0853 82.2428 75.8402 82.2428M75.8402 82.0655C74.7716 82.0655 73.976 82.5141 73.572 83.2924C73.9476 83.0974 74.3977 82.9928 74.9134 82.9928C75.2944 82.9928 75.7091 83.0495 76.1538 83.1683C78.8934 83.9024 81.7092 86.7197 82.4428 89.4609C82.7228 90.507 82.659 91.39 82.3206 92.0424C83.3767 91.4946 83.825 90.2268 83.3714 88.5318C82.6378 85.7907 79.822 82.9733 77.0824 82.2393C76.6376 82.1205 76.2229 82.0637 75.842 82.0637L75.8402 82.0655Z" fill="#4E4E4E"/>
<path d="M82.3188 92.2217C82.2905 92.2217 82.2639 92.2146 82.2373 92.2022C82.1505 92.1579 82.1168 92.0497 82.1611 91.9628C82.4925 91.3263 82.5297 90.477 82.271 89.5089C81.5533 86.8263 78.7871 84.0603 76.106 83.3405C75.1385 83.0816 74.2897 83.1188 73.6535 83.4504C73.5667 83.4947 73.4603 83.461 73.4143 83.3742C73.37 83.2873 73.4036 83.1809 73.4905 83.1348C74.2064 82.7625 75.1438 82.7146 76.1982 82.9983C78.9874 83.7465 81.8652 86.6259 82.613 89.4167C82.8965 90.4717 82.8487 91.4096 82.4765 92.1259C82.4446 92.1862 82.3826 92.2217 82.3188 92.2217V92.2217Z" fill="#666666"/>
</g>
<defs>
<clipPath id="clip0_64_2315">
<rect width="110" height="98" fill="white"/>
</clipPath>
</defs>
</svg>
