<svg width="151" height="151" viewBox="0 0 151 151" fill="none" xmlns="http://www.w3.org/2000/svg">
<g clip-path="url(#clip0_33_3445)">
<rect width="151" height="151" fill="#F7F7F7"/>
<g clip-path="url(#clip1_33_3445)">
<path d="M129.524 110.371L44.5913 61.3032L21 74.9327L105.931 124L129.524 110.371Z" fill="black"/>
<path d="M25.719 68.117L91.7757 106.113V77.6578L25.719 39.4946" fill="#0293A1"/>
<path d="M91.7757 77.6578V106.115L115.369 92.484V64.0283L91.7757 77.6578Z" fill="#9BD6E0"/>
<path d="M115.369 64.0283L49.7444 26.1169C49.4768 25.9627 49.1455 25.9627 48.8779 26.1169L25.719 39.4946L91.7757 77.6577L115.367 64.0283" fill="#D9EFF1"/>
<path d="M40.87 71.1897V58.2464L36.874 55.9379V53.3245L47.8271 59.6507V62.2642L43.8524 59.9681V72.9113L40.87 71.1897Z" fill="white"/>
<path d="M37.1398 53.7838L47.5613 59.8033V61.8033L43.5865 59.5072V72.4505L41.1376 71.0356V58.0923L37.1416 55.7838V53.7838M36.61 52.8618V56.0905L36.8758 56.2448L40.606 58.3991V71.3423L40.8718 71.4966L43.3207 72.9115L44.1182 73.3725V60.4292L47.2954 62.2643L48.0929 62.7253V59.4983L47.8271 59.3441L37.4056 53.3246L36.6082 52.8636L36.61 52.8618Z" fill="white"/>
<path d="M63.0437 83.9984V74.5711L58.8492 81.5747L56.8397 80.4151L52.7463 68.8974V78.0499L49.7657 76.3282V60.7715L52.8916 62.5782L57.9791 76.885L63.0454 68.4417L66.026 70.1633V85.7201L63.0437 83.9984Z" fill="white"/>
<path d="M50.0315 61.2325L52.6736 62.7591L57.9171 77.5055L63.1376 68.8052L65.7584 70.3193V85.2608L63.3095 83.8459V73.6119L58.7553 81.2147L57.0577 80.2342L52.4805 67.3566V77.5906L50.0315 76.1757V61.2342M49.4999 60.3123V76.4825L49.7657 76.6367L52.2147 78.0516L53.0121 78.5126V70.4417L56.5562 80.4133L56.6217 80.5977L56.7919 80.6952L58.4895 81.6757L58.9431 81.9381L59.2125 81.4896L62.7796 75.5357V84.1545L63.0454 84.3087L65.4944 85.7236L66.2918 86.1846V70.0144L66.026 69.8601L63.4052 68.3459L62.9533 68.0853L62.6839 68.5339L58.0429 76.2697L53.1769 62.5853L53.1113 62.4009L52.9412 62.3034L50.2991 60.7768L49.5016 60.3158L49.4999 60.3123Z" fill="white"/>
<path d="M78.425 91.7377C77.1084 91.7377 75.5277 91.2111 73.7273 90.1703L68.7177 87.2767V71.72L73.9931 74.7678C78.8911 77.5959 82.0542 82.4381 82.0542 87.103C82.0542 90.0923 80.7659 91.7377 78.425 91.7377ZM73.9931 87.7093C75.1804 88.3955 76.1834 88.743 76.9755 88.743C77.6418 88.743 78.1309 88.5001 78.4711 88.0019C78.8273 87.4806 79.008 86.6881 79.008 85.6491C79.008 82.2359 77.0836 79.165 73.7256 77.2271L71.6966 76.0551V86.3849L73.9914 87.7111L73.9931 87.7093Z" fill="white"/>
<path d="M68.9836 72.1792L73.8602 74.9966C78.6519 77.7644 81.7884 82.4789 81.7884 87.1012C81.7884 90.0002 80.5426 91.47 78.425 91.47C77.1793 91.47 75.6341 90.9629 73.8602 89.9381L68.9836 87.1207V72.1792ZM76.9773 89.009C78.4871 89.009 79.2756 87.8441 79.2756 85.6491C79.2756 82.2307 77.3848 79.0321 73.8602 76.9966L71.4325 75.5941V86.5374L73.8602 87.9399C75.1078 88.6597 76.1497 89.009 76.9755 89.009M68.4502 71.259V87.4292L68.716 87.5835L73.5927 90.4009C75.4338 91.4647 77.0588 92.0037 78.4233 92.0037C80.8988 92.0037 82.3182 90.2165 82.3182 87.103C82.3182 82.3459 79.102 77.4133 74.1243 74.5374L69.2476 71.72L68.4502 71.259ZM71.9624 86.2307V76.5161L73.5927 77.4576C76.8656 79.3477 78.7422 82.3335 78.7422 85.6509C78.7422 88.4789 77.4114 88.4789 76.9755 88.4789C76.2312 88.4789 75.2726 88.1438 74.126 87.4807L71.9641 86.2324L71.9624 86.2307Z" fill="white"/>
<path d="M107.407 95.9646L93.2518 87.7873V109.594L106.973 117.261C107.242 117.411 107.572 117.41 107.839 117.259L130.55 104.397C130.828 104.239 130.998 103.945 130.998 103.628V82.3369L107.407 95.9663V95.9646Z" fill="#EF8B43"/>
<path d="M97.9708 96.2714V101.316C97.9708 101.38 98.0044 101.436 98.0594 101.468L107.32 106.818C107.375 106.849 107.442 106.849 107.497 106.818L130.913 93.2891C130.968 93.2572 131.002 93.1987 131.002 93.1367V88.0923C131.002 87.9558 130.855 87.8707 130.738 87.9398L107.499 101.365C107.444 101.397 107.377 101.397 107.322 101.365L98.2383 96.1171C98.1214 96.0498 97.9743 96.1349 97.9743 96.2696L97.9708 96.2714Z" fill="black"/>
<path d="M131 82.3353L107.407 95.9647L93.2518 87.7874L116.845 74.158L131 82.3353Z" fill="#EFAA77"/>
<path d="M97.9708 79.5816L107.407 85.0337L121.562 76.8547L112.126 71.4043L97.9708 79.5816Z" fill="#EFAA77"/>
<path d="M121.562 76.8547L107.407 85.0338L97.9708 79.5817V85.0338L107.407 90.4859L121.562 82.3069V76.8547Z" fill="#EF8B43"/>
<path d="M128.496 101.973C129.108 101.973 129.604 101.114 129.604 100.055C129.604 98.9954 129.108 98.1365 128.496 98.1365C127.884 98.1365 127.389 98.9954 127.389 100.055C127.389 101.114 127.884 101.973 128.496 101.973Z" fill="#D9EFF1"/>
<path d="M109.767 112.876C110.379 112.876 110.875 112.017 110.875 110.958C110.875 109.898 110.379 109.039 109.767 109.039C109.156 109.039 108.66 109.898 108.66 110.958C108.66 112.017 109.156 112.876 109.767 112.876Z" fill="#D9EFF1"/>
<path d="M84.5864 107.782C86.0044 106.364 85.1629 103.221 82.7068 100.764C80.2508 98.3067 77.1104 97.4647 75.6924 98.8835C74.2744 100.302 75.1159 103.445 77.5719 105.902C80.0279 108.359 83.1684 109.201 84.5864 107.782Z" fill="black"/>
<path d="M83.3509 106.546C84.3751 105.522 83.7675 103.252 81.9939 101.478C80.2202 99.7029 77.9521 99.095 76.9279 100.12C75.9037 101.145 76.5112 103.414 78.2849 105.189C80.0586 106.963 82.3267 107.571 83.3509 106.546Z" fill="#D9EFF1"/>
<path d="M78.8858 100.83H78.8822H78.8787C78.8787 100.83 78.8769 100.83 78.8751 100.83C78.8751 100.83 78.8716 100.83 78.8698 100.83C78.8698 100.83 78.8663 100.83 78.8645 100.83C78.8645 100.83 78.8592 100.83 78.8574 100.83C78.8539 100.83 78.8521 100.83 78.8486 100.83C78.8486 100.83 78.8432 100.83 78.8397 100.83C78.8362 100.83 78.8326 100.83 78.8273 100.83C78.8273 100.83 78.8202 100.83 78.8149 100.83C78.8149 100.83 78.806 100.83 78.8025 100.83C78.7883 100.83 78.7759 100.831 78.7617 100.833C78.7617 100.833 78.7546 100.833 78.7493 100.833C78.7086 100.839 78.6678 100.846 78.6288 100.853C78.6164 100.854 78.604 100.858 78.5916 100.862C78.4747 100.888 78.3683 100.929 78.2744 100.982L78.3613 101.136C78.5261 101.044 78.7263 100.998 78.9567 100.998V100.821L78.8858 100.83ZM77.741 101.512C77.7304 101.535 77.7215 101.56 77.7127 101.585C77.7127 101.589 77.7109 101.592 77.7091 101.596C77.7091 101.597 77.7091 101.599 77.7074 101.601C77.7074 101.601 77.7074 101.604 77.7074 101.606C77.7074 101.606 77.7074 101.608 77.7074 101.61C77.7074 101.61 77.7074 101.61 77.7074 101.612V101.615C77.7074 101.615 77.7074 101.615 77.7074 101.617C77.7074 101.617 77.7074 101.619 77.7074 101.62C77.7074 101.62 77.7074 101.624 77.7074 101.626C77.7074 101.626 77.7074 101.629 77.7074 101.631C77.7074 101.633 77.7074 101.636 77.7074 101.638C77.7074 101.642 77.7074 101.643 77.7074 101.647C77.7074 101.647 77.7074 101.654 77.7074 101.658C77.7074 101.658 77.7074 101.667 77.7074 101.67C77.7074 101.67 77.7074 101.681 77.7074 101.686C77.7074 101.686 77.7074 101.688 77.7074 101.69C77.7074 101.69 77.7074 101.7 77.7074 101.706C77.7074 101.706 77.7074 101.707 77.7074 101.709C77.7074 101.709 77.7074 101.722 77.7074 101.727C77.7074 101.727 77.7074 101.739 77.7074 101.746C77.7074 101.746 77.7074 101.757 77.7074 101.762C77.7074 101.762 77.7074 101.775 77.7074 101.78C77.7074 101.785 77.7074 101.791 77.7074 101.796L77.8846 101.785C77.8686 101.551 77.8987 101.346 77.9732 101.17L77.8101 101.101L77.741 101.512ZM77.9537 102.842L77.7871 102.901C77.796 102.925 77.8048 102.95 77.8137 102.973C77.8137 102.973 77.8137 102.975 77.8137 102.977C77.8137 102.977 77.8137 102.979 77.8137 102.98C77.8137 102.98 77.8137 102.98 77.8137 102.982C77.8137 102.982 77.8137 102.982 77.8137 102.984V102.986C77.8137 102.986 77.8137 102.986 77.8137 102.987C77.8137 102.987 77.8137 102.987 77.8137 102.989V102.991V102.993V102.995C77.8137 102.995 77.8137 102.995 77.8137 102.996C77.8137 102.996 77.8137 102.996 77.8137 102.998V103C77.8137 103 77.8137 103 77.8137 103.002C77.8137 103.002 77.8137 103.002 77.8137 103.003C77.8137 103.003 77.8137 103.003 77.8137 103.005C77.8137 103.005 77.8137 103.005 77.8137 103.007C77.8137 103.007 77.8137 103.007 77.8137 103.009C77.8137 103.009 77.8137 103.009 77.8137 103.011V103.012C77.8137 103.012 77.8137 103.012 77.8137 103.014C77.8137 103.014 77.8137 103.016 77.8137 103.018C77.8137 103.018 77.8137 103.019 77.8137 103.021C77.8137 103.021 77.8137 103.023 77.8137 103.025C77.8137 103.025 77.8137 103.026 77.8137 103.028C77.8137 103.028 77.8137 103.028 77.8137 103.03C77.8137 103.03 77.8137 103.032 77.8137 103.034C77.8137 103.034 77.8137 103.035 77.8137 103.037V103.041C77.8137 103.041 77.8137 103.041 77.8155 103.041C77.8155 103.041 77.8155 103.042 77.8155 103.044C77.8155 103.044 77.8155 103.046 77.8172 103.048C77.8474 103.11 77.8775 103.17 77.9112 103.232C77.9112 103.232 77.9112 103.234 77.9129 103.236C77.9129 103.236 77.9129 103.237 77.9147 103.239C77.9147 103.239 77.9147 103.241 77.9165 103.243C77.9165 103.243 77.9165 103.243 77.9165 103.245C77.9165 103.245 77.9165 103.245 77.9165 103.246C77.9165 103.246 77.9165 103.246 77.9165 103.248C77.9165 103.248 77.9165 103.248 77.9165 103.25C77.9165 103.25 77.9165 103.252 77.9182 103.253C77.9182 103.253 77.9182 103.255 77.92 103.257C77.92 103.257 77.92 103.259 77.9218 103.261C77.9218 103.261 77.9271 103.269 77.9289 103.273L78.083 103.184C77.9661 102.98 77.8704 102.773 77.8013 102.571L77.9537 102.842ZM78.6182 104.019L78.48 104.129C78.5243 104.186 78.5704 104.243 78.6182 104.298C78.6182 104.298 78.6235 104.303 78.6253 104.307C78.6253 104.307 78.6253 104.307 78.6253 104.308C78.6271 104.312 78.6306 104.314 78.6324 104.317C78.6324 104.317 78.6324 104.317 78.6324 104.319C78.6324 104.319 78.6324 104.319 78.6324 104.321C78.6324 104.321 78.6341 104.324 78.6359 104.324C78.6359 104.324 78.6359 104.324 78.6359 104.326C78.6359 104.326 78.6359 104.326 78.6377 104.328C78.6377 104.328 78.6377 104.328 78.6377 104.33C78.6377 104.33 78.6377 104.33 78.6377 104.331C78.6377 104.331 78.6377 104.331 78.6395 104.333C78.6395 104.333 78.6412 104.335 78.643 104.337C78.643 104.337 78.6448 104.339 78.6466 104.34C78.6466 104.34 78.6483 104.342 78.6501 104.344C78.6501 104.344 78.6501 104.344 78.6501 104.346C78.6501 104.346 78.6501 104.346 78.6501 104.347C78.6501 104.347 78.6501 104.347 78.6501 104.349C78.6501 104.349 78.6501 104.349 78.6501 104.351C78.6501 104.351 78.6501 104.351 78.6501 104.353C78.6501 104.353 78.6501 104.353 78.6501 104.354C78.6501 104.354 78.6501 104.354 78.6501 104.356C78.6501 104.356 78.6501 104.356 78.6501 104.358C78.6501 104.358 78.6501 104.358 78.6501 104.36C78.6501 104.36 78.6501 104.36 78.6501 104.362C78.6501 104.362 78.6501 104.362 78.6501 104.363C78.6501 104.363 78.6501 104.363 78.6501 104.365C78.6501 104.365 78.6501 104.365 78.6501 104.367C78.6501 104.367 78.6501 104.367 78.6501 104.369C78.6501 104.369 78.6501 104.369 78.6501 104.37C78.6501 104.37 78.6501 104.37 78.6501 104.372V104.374V104.376C78.6501 104.376 78.6501 104.376 78.6501 104.378C78.6501 104.378 78.6501 104.378 78.6501 104.379C78.6501 104.379 78.6501 104.379 78.6501 104.381C78.6501 104.381 78.6501 104.381 78.6501 104.383C78.6501 104.383 78.6501 104.383 78.6501 104.385H78.6519C78.6519 104.385 78.6519 104.386 78.6519 104.388C78.6519 104.388 78.6519 104.388 78.6519 104.39C78.6519 104.39 78.6519 104.39 78.6536 104.392C78.6536 104.392 78.6536 104.392 78.6536 104.394C78.6536 104.394 78.6554 104.395 78.6572 104.397C78.6572 104.397 78.6607 104.401 78.6607 104.402C78.6607 104.402 78.6643 104.406 78.666 104.409C78.6678 104.411 78.6696 104.413 78.6731 104.415C78.6767 104.418 78.6785 104.42 78.682 104.424L78.8043 104.296C78.6395 104.136 78.4835 103.966 78.3435 103.789L78.6182 104.019ZM79.6017 104.968L79.4971 105.112C79.4971 105.112 79.5131 105.122 79.5202 105.128C79.5202 105.128 79.5219 105.128 79.5237 105.129C79.5237 105.129 79.5237 105.129 79.5255 105.129C79.5255 105.129 79.5273 105.129 79.529 105.131C79.529 105.131 79.5308 105.131 79.5326 105.133C79.6584 105.222 79.7878 105.303 79.9171 105.378C79.9171 105.378 79.9207 105.379 79.9224 105.381C79.9224 105.381 79.9224 105.381 79.9242 105.381C79.9242 105.381 79.9242 105.381 79.926 105.381C79.926 105.381 79.926 105.381 79.9277 105.381C79.9277 105.381 79.9277 105.381 79.9295 105.381C79.9295 105.381 79.9295 105.381 79.9313 105.381C79.9313 105.381 79.9331 105.381 79.9348 105.383C79.9667 105.401 80.0004 105.418 80.0341 105.434L80.1156 105.276C79.9207 105.177 79.7257 105.057 79.5379 104.918L79.6017 104.968ZM80.8049 105.574L80.7571 105.745C80.7571 105.745 80.7695 105.748 80.7766 105.75C80.7766 105.75 80.7766 105.75 80.7783 105.75C80.7783 105.75 80.7783 105.75 80.7801 105.75C80.9963 105.808 81.2001 105.835 81.3844 105.835H81.3897H81.3915C81.3915 105.835 81.3915 105.835 81.3932 105.835C81.3932 105.835 81.3932 105.835 81.395 105.835C81.395 105.835 81.3968 105.835 81.3985 105.835C81.4092 105.835 81.4198 105.835 81.4322 105.835L81.4251 105.658C81.4056 105.658 81.3844 105.658 81.3631 105.658C81.1894 105.658 81.0016 105.631 80.8049 105.578L80.7801 105.571L80.8049 105.574ZM82.3909 105.034C82.32 105.23 82.2013 105.386 82.0347 105.493L82.1304 105.642C82.1304 105.642 82.1304 105.642 82.1322 105.642C82.1322 105.642 82.1322 105.642 82.1339 105.642C82.1339 105.642 82.1339 105.642 82.1357 105.642C82.1357 105.642 82.1357 105.642 82.1375 105.642C82.1375 105.642 82.1375 105.642 82.1393 105.642C82.1393 105.642 82.1393 105.642 82.141 105.642C82.141 105.642 82.1428 105.642 82.1446 105.64C82.1446 105.64 82.1446 105.64 82.1463 105.64C82.1463 105.64 82.1481 105.64 82.1499 105.638C82.1499 105.638 82.1534 105.636 82.1534 105.635C82.1534 105.635 82.157 105.633 82.157 105.631C82.157 105.631 82.1605 105.629 82.1605 105.628C82.1623 105.628 82.1641 105.624 82.1658 105.624C82.2739 105.541 82.3625 105.436 82.4317 105.315C82.4317 105.315 82.4334 105.312 82.4352 105.31C82.4352 105.31 82.437 105.307 82.4387 105.305C82.4387 105.305 82.4405 105.301 82.4423 105.3C82.4423 105.3 82.4423 105.296 82.4441 105.294C82.4441 105.294 82.4441 105.292 82.4458 105.291C82.4458 105.291 82.4458 105.289 82.4476 105.287C82.4476 105.287 82.4476 105.285 82.4494 105.284C82.4494 105.284 82.4494 105.28 82.4511 105.278C82.4511 105.278 82.4511 105.276 82.4529 105.275C82.4529 105.275 82.4529 105.273 82.4547 105.271C82.4547 105.271 82.4547 105.269 82.4565 105.268C82.4565 105.268 82.4565 105.266 82.4582 105.264C82.4582 105.264 82.4582 105.262 82.46 105.261C82.46 105.261 82.46 105.259 82.4618 105.257C82.4618 105.257 82.4618 105.255 82.4618 105.253C82.4618 105.253 82.4618 105.252 82.4618 105.25V105.248C82.4618 105.248 82.4618 105.248 82.4618 105.246C82.4618 105.246 82.4618 105.245 82.4618 105.243C82.4618 105.243 82.4618 105.241 82.4618 105.239C82.4618 105.239 82.4618 105.239 82.4618 105.237C82.4618 105.237 82.4618 105.237 82.4618 105.236C82.4618 105.236 82.4618 105.236 82.4618 105.234V105.232C82.4618 105.232 82.4618 105.232 82.4618 105.23C82.4618 105.23 82.4618 105.229 82.4618 105.227C82.4618 105.227 82.4618 105.227 82.4618 105.225C82.4618 105.225 82.4618 105.225 82.4618 105.223C82.4618 105.223 82.4618 105.222 82.4618 105.22L82.2952 105.159L82.3909 105.034ZM82.4653 103.706L82.2987 103.768C82.3306 103.854 82.359 103.943 82.382 104.03C82.4175 104.161 82.4405 104.291 82.4529 104.411L82.6301 104.394C82.6301 104.376 82.6266 104.36 82.6248 104.342C82.6177 104.292 82.6106 104.243 82.6 104.193C82.6 104.193 82.6 104.191 82.6 104.19C82.6 104.19 82.6 104.19 82.6 104.188C82.6 104.181 82.5964 104.174 82.5947 104.167C82.5947 104.167 82.5947 104.167 82.5947 104.165C82.5947 104.165 82.5947 104.165 82.5947 104.163C82.5947 104.163 82.5947 104.163 82.5947 104.161C82.5947 104.161 82.5947 104.161 82.5947 104.159C82.5947 104.159 82.5947 104.159 82.5947 104.158C82.5947 104.158 82.5947 104.158 82.5947 104.156C82.5947 104.156 82.5947 104.156 82.5947 104.154C82.5947 104.154 82.5947 104.154 82.5947 104.152C82.5947 104.152 82.5947 104.152 82.5947 104.151C82.5947 104.151 82.5947 104.151 82.5947 104.149C82.5947 104.149 82.5947 104.147 82.5947 104.145C82.5947 104.145 82.5947 104.145 82.5947 104.143C82.5947 104.143 82.5947 104.143 82.5947 104.142C82.5947 104.142 82.5947 104.142 82.5947 104.14C82.5947 104.138 82.5947 104.136 82.5947 104.135C82.5947 104.135 82.5947 104.135 82.5947 104.133C82.5947 104.133 82.5947 104.133 82.5947 104.131C82.5947 104.129 82.5947 104.126 82.5929 104.124C82.5929 104.124 82.5929 104.124 82.5929 104.122C82.5929 104.12 82.5929 104.117 82.5911 104.115C82.5823 104.085 82.5734 104.055 82.5628 104.025C82.5628 104.025 82.5628 104.025 82.5628 104.023C82.5628 104.023 82.5628 104.023 82.5628 104.021C82.5628 104.021 82.5628 104.019 82.5628 104.018C82.5628 104.018 82.5628 104.018 82.5628 104.016C82.5628 104.016 82.5628 104.016 82.5628 104.014C82.5628 104.014 82.5628 104.014 82.5628 104.012C82.5628 104.012 82.5628 104.012 82.5628 104.011C82.5628 104.011 82.5628 104.011 82.5628 104.009C82.5628 104.009 82.5628 104.009 82.5628 104.007V104.005C82.5628 104.005 82.5628 104.005 82.5628 104.003C82.5628 104.003 82.5628 104.002 82.5628 104C82.5628 104 82.5628 104 82.5628 103.998C82.5557 103.975 82.5468 103.954 82.538 103.931L82.4653 103.706ZM81.7512 102.487L81.613 102.599C81.76 102.78 81.8912 102.968 82.0046 103.158L82.157 103.067C82.1074 102.984 82.0542 102.901 81.9993 102.819C81.9993 102.819 81.994 102.812 81.9922 102.808C81.9922 102.808 81.9886 102.803 81.9869 102.801C81.9869 102.801 81.9869 102.801 81.9869 102.8C81.9869 102.798 81.9833 102.794 81.9816 102.792C81.9816 102.792 81.9816 102.792 81.9816 102.791C81.9816 102.791 81.9816 102.791 81.9816 102.789C81.9816 102.787 81.978 102.784 81.9762 102.782C81.9762 102.782 81.9762 102.782 81.9762 102.78C81.9762 102.778 81.9727 102.776 81.9709 102.773C81.9709 102.773 81.9709 102.773 81.9709 102.771C81.9709 102.771 81.9691 102.768 81.9674 102.768C81.9674 102.768 81.9674 102.768 81.9674 102.766C81.9674 102.766 81.9674 102.766 81.9674 102.764C81.9674 102.764 81.9656 102.761 81.9638 102.761C81.9638 102.761 81.9638 102.761 81.9638 102.759C81.9638 102.759 81.9638 102.759 81.9638 102.757C81.9638 102.757 81.9638 102.757 81.9638 102.755V102.753C81.9638 102.753 81.9638 102.753 81.9638 102.752C81.9638 102.752 81.9638 102.752 81.9638 102.75C81.9638 102.75 81.9638 102.75 81.9638 102.748C81.9638 102.748 81.9638 102.748 81.9638 102.746C81.9638 102.746 81.9638 102.746 81.9638 102.745C81.9638 102.745 81.9638 102.745 81.9621 102.743C81.9621 102.743 81.9603 102.739 81.9585 102.737C81.9585 102.737 81.9567 102.734 81.955 102.732C81.955 102.73 81.9514 102.727 81.9497 102.725C81.9479 102.722 81.9461 102.72 81.9426 102.716C81.9 102.659 81.8575 102.604 81.8132 102.55L81.7512 102.487ZM80.7199 101.519L80.6171 101.665C80.7996 101.794 80.9786 101.94 81.1469 102.099L81.2674 101.97C81.1877 101.895 81.1062 101.823 81.0229 101.753C81.0211 101.752 81.0176 101.75 81.0158 101.748C81.0158 101.748 81.0122 101.745 81.0105 101.745C81.0105 101.745 81.0069 101.741 81.0051 101.741C81.0051 101.741 81.0051 101.741 81.0034 101.739H81.0016V101.737C81.0016 101.737 81.0016 101.737 80.9998 101.737C80.9998 101.737 80.9963 101.736 80.9963 101.734C80.9963 101.734 80.9963 101.734 80.9945 101.734C80.9945 101.734 80.991 101.732 80.991 101.73C80.991 101.73 80.9874 101.729 80.9874 101.727C80.9874 101.727 80.9874 101.727 80.9857 101.727C80.9857 101.727 80.9857 101.727 80.9839 101.727C80.9839 101.727 80.9803 101.725 80.9803 101.723C80.9803 101.723 80.9803 101.723 80.9786 101.723C80.9786 101.723 80.9786 101.723 80.9768 101.723C80.975 101.723 80.9733 101.72 80.9697 101.718C80.9697 101.718 80.9697 101.718 80.9679 101.718C80.9679 101.718 80.9626 101.713 80.9591 101.711C80.9591 101.711 80.9591 101.711 80.9573 101.711C80.8971 101.665 80.8368 101.619 80.7766 101.576L80.7199 101.519ZM79.4493 100.908L79.405 101.08L79.4422 101.089C79.6354 101.14 79.8338 101.216 80.0341 101.314L80.112 101.154C80.0536 101.126 79.9951 101.097 79.9348 101.073C79.9348 101.073 79.9348 101.073 79.9331 101.073C79.9331 101.073 79.9331 101.073 79.9313 101.073C79.9313 101.073 79.9295 101.073 79.9277 101.073C79.9277 101.073 79.9277 101.073 79.926 101.073C79.926 101.073 79.926 101.073 79.9242 101.073C79.9242 101.073 79.9242 101.073 79.9224 101.073C79.9224 101.073 79.9207 101.073 79.9189 101.073C79.7913 101.019 79.6637 100.977 79.5361 100.941C79.5361 100.941 79.5343 100.941 79.5326 100.941C79.5326 100.941 79.5326 100.941 79.5308 100.941C79.5308 100.941 79.5308 100.941 79.529 100.941H79.5273C79.5273 100.941 79.5273 100.941 79.5255 100.941C79.5202 100.941 79.5149 100.938 79.5095 100.938C79.5095 100.938 79.5007 100.936 79.4954 100.934L79.4493 100.908Z" fill="#4E4E4E"/>
<path d="M80.92 104.114C81.1692 103.865 81.0216 103.313 80.5905 102.882C80.1593 102.45 79.6079 102.303 79.3587 102.552C79.1096 102.801 79.2572 103.353 79.6883 103.784C80.1194 104.216 80.6709 104.364 80.92 104.114Z" fill="black"/>
<path d="M84.8204 107.221C85.0702 106.564 85.0755 105.746 84.8328 104.839C84.092 102.074 81.2426 99.2233 78.48 98.4821C78.037 98.3633 77.6117 98.303 77.2183 98.303C76.8249 98.303 76.4315 98.3669 76.0983 98.4945C76.5236 97.8846 77.2395 97.5513 78.145 97.5513C78.5243 97.5513 78.9336 97.6098 79.3624 97.725C82.0701 98.4502 84.8629 101.246 85.5894 103.956C85.981 105.417 85.6922 106.613 84.8204 107.221Z" fill="#4E4E4E"/>
<path d="M78.1451 97.6417C78.5172 97.6417 78.9194 97.6985 79.3394 97.8119C82.0205 98.53 84.7849 101.298 85.5044 103.98C85.8482 105.268 85.6568 106.34 84.9958 106.966C85.1571 106.347 85.1322 105.615 84.9196 104.817C84.1718 102.026 81.294 99.147 78.5048 98.3988C78.0547 98.2782 77.6223 98.2162 77.22 98.2162C76.9117 98.2162 76.6229 98.2517 76.3571 98.3208C76.7735 97.8793 77.3919 97.6417 78.1468 97.6417M78.1468 97.4644C77.0783 97.4644 76.2826 97.913 75.8786 98.6914C76.2543 98.4963 76.7044 98.3917 77.22 98.3917C77.601 98.3917 78.0157 98.4485 78.4605 98.5673C81.2001 99.3013 84.0159 102.119 84.7495 104.86C85.0295 105.906 84.9657 106.789 84.6272 107.441C85.6834 106.893 86.1317 105.626 85.678 103.931C84.9444 101.19 82.1286 98.3722 79.389 97.6382C78.9442 97.5194 78.5296 97.4626 78.1486 97.4626L78.1468 97.4644Z" fill="#4E4E4E"/>
<path d="M84.6237 107.621C84.5953 107.621 84.5687 107.614 84.5421 107.601C84.4553 107.557 84.4216 107.449 84.4659 107.362C84.7973 106.725 84.8345 105.876 84.5758 104.908C83.8581 102.225 81.092 99.4593 78.4108 98.7394C77.4433 98.4805 76.5945 98.5178 75.9583 98.8493C75.8715 98.8937 75.7652 98.86 75.7191 98.7731C75.6748 98.6862 75.7085 98.5798 75.7953 98.5337C76.513 98.1614 77.4486 98.1135 78.503 98.3972C81.2922 99.1454 84.17 102.025 84.9178 104.816C85.1996 105.871 85.1535 106.809 84.7814 107.525C84.7495 107.585 84.6875 107.621 84.6237 107.621Z" fill="#666666"/>
<path d="M38.5772 81.1617C39.9952 79.7429 39.1537 76.6006 36.6977 74.1432C34.2417 71.6858 31.1012 70.8439 29.6832 72.2626C28.2652 73.6814 29.1067 76.8237 31.5628 79.281C34.0188 81.7384 37.1592 82.5804 38.5772 81.1617Z" fill="black"/>
<path d="M37.3417 79.9256C38.3659 78.9008 37.7584 76.6314 35.9847 74.8568C34.211 73.0821 31.9429 72.4742 30.9187 73.499C29.8945 74.5237 30.502 76.7931 32.2757 78.5678C34.0494 80.3425 36.3175 80.9504 37.3417 79.9256Z" fill="#D9EFF1"/>
<path d="M32.8763 74.2093H32.871H32.8692C32.8692 74.2093 32.8674 74.2093 32.8656 74.2093C32.8656 74.2093 32.8603 74.2093 32.8568 74.2093C32.6441 74.2128 32.4528 74.2554 32.2915 74.3298C32.2915 74.3298 32.2844 74.3334 32.2826 74.3334C32.2826 74.3334 32.2791 74.3334 32.2773 74.3352C32.2773 74.3352 32.2773 74.3352 32.2755 74.3352C32.2755 74.3352 32.272 74.3352 32.272 74.3369C32.272 74.3369 32.2667 74.3405 32.2649 74.3405C32.2649 74.3405 32.2631 74.3405 32.2614 74.3423L32.3482 74.4965C32.513 74.4043 32.7132 74.3582 32.9436 74.3582V74.1809L32.8763 74.2093ZM31.7315 74.8919C31.6819 75.0107 31.6482 75.1437 31.6341 75.2891C31.6341 75.2891 31.6341 75.2997 31.6341 75.305C31.6341 75.3086 31.6341 75.3121 31.6341 75.3174C31.6341 75.3174 31.6341 75.3263 31.6341 75.3298C31.6341 75.3334 31.6341 75.3369 31.6341 75.3405C31.6341 75.3405 31.6341 75.3476 31.6341 75.3493C31.6341 75.3493 31.6341 75.3547 31.6341 75.3582C31.6341 75.3582 31.6341 75.3635 31.6341 75.3671V75.3689V75.3724C31.6341 75.3724 31.6341 75.3777 31.6341 75.3795V75.383C31.6341 75.383 31.6341 75.3848 31.6341 75.3866C31.6341 75.3866 31.6341 75.3866 31.6341 75.3884C31.6341 75.3884 31.6341 75.3937 31.6341 75.3972C31.6341 75.3972 31.6341 75.4043 31.6341 75.4079C31.6341 75.4079 31.6341 75.415 31.6341 75.4185C31.6341 75.4185 31.6341 75.4203 31.6341 75.422C31.6341 75.422 31.6341 75.4327 31.6341 75.438C31.6341 75.438 31.6341 75.4486 31.6341 75.454L31.8113 75.4433C31.7953 75.2093 31.8254 75.0036 31.8999 74.8281L31.7368 74.7589L31.7315 74.8919ZM31.9442 76.2217L31.7776 76.2802C31.7776 76.2802 31.7776 76.2802 31.7776 76.282C31.7776 76.282 31.7776 76.2837 31.7776 76.2855V76.2891C31.7776 76.2891 31.7776 76.2891 31.7776 76.2908C31.7776 76.2908 31.7776 76.2908 31.7776 76.2926C31.7776 76.2926 31.7776 76.2926 31.7776 76.2944C31.7776 76.2944 31.7776 76.2944 31.7776 76.2962C31.7776 76.2962 31.7776 76.2979 31.7776 76.2997C31.7776 76.2997 31.7776 76.3015 31.7776 76.3032C31.7776 76.3032 31.7776 76.305 31.7776 76.3068C31.7776 76.3068 31.7776 76.3068 31.7776 76.3086C31.7776 76.3086 31.7776 76.3086 31.7776 76.3103C31.7776 76.3103 31.7776 76.3103 31.7776 76.3121C31.7776 76.3121 31.7776 76.3139 31.7776 76.3157C31.7776 76.3174 31.7794 76.321 31.7811 76.3228C31.8503 76.5018 31.9353 76.6791 32.0345 76.8529L32.1887 76.7642C32.0718 76.5603 31.9761 76.3529 31.907 76.1508L31.9442 76.2217ZM32.6087 77.399L32.4705 77.5089C32.4971 77.5408 32.5219 77.5745 32.5502 77.6064C32.5502 77.6064 32.5555 77.6118 32.5573 77.6153C32.5591 77.6189 32.5626 77.6206 32.5644 77.6242C32.5662 77.6259 32.5679 77.6295 32.5697 77.6313C32.5697 77.6313 32.5733 77.6366 32.575 77.6384C32.575 77.6384 32.575 77.6384 32.575 77.6401C32.5768 77.6419 32.5786 77.6437 32.5803 77.6472C32.5821 77.649 32.5839 77.6508 32.5857 77.6543C32.5857 77.6543 32.5892 77.6579 32.5892 77.6596C32.591 77.6614 32.5927 77.6632 32.5945 77.6667C32.5963 77.6685 32.5981 77.6703 32.5998 77.6738C32.5998 77.6738 32.6034 77.6774 32.6034 77.6791C32.6034 77.6791 32.6069 77.6827 32.6069 77.6845C32.6069 77.6845 32.6105 77.688 32.6105 77.6898C32.6105 77.6898 32.6105 77.6898 32.6105 77.6916C32.6122 77.6933 32.614 77.6951 32.6158 77.6986C32.6176 77.7004 32.6193 77.7022 32.6211 77.7057C32.6211 77.7057 32.6246 77.7093 32.6246 77.7111C32.6246 77.7111 32.6282 77.7146 32.6282 77.7164C32.6282 77.7164 32.6317 77.7199 32.6335 77.7217C32.6353 77.7235 32.637 77.7252 32.6388 77.7288C32.6406 77.7306 32.6424 77.7323 32.6441 77.7359C32.6441 77.7359 32.6441 77.7359 32.6441 77.7376C32.6459 77.7394 32.6477 77.7412 32.6494 77.7447C32.6512 77.7465 32.653 77.7483 32.6548 77.7518C32.6565 77.7536 32.6583 77.7554 32.6601 77.7589C32.6619 77.7607 32.6636 77.7625 32.6654 77.766C32.6672 77.7678 32.6689 77.7696 32.6707 77.7731C32.6725 77.7749 32.6743 77.7767 32.676 77.7802C32.6778 77.782 32.6796 77.7837 32.6813 77.7873C32.6831 77.7891 32.6849 77.7908 32.6867 77.7944C32.6867 77.7944 32.6902 77.7979 32.6937 77.8015C32.6937 77.8015 32.6973 77.805 32.7008 77.8086C32.7026 77.8121 32.7062 77.8139 32.7079 77.8174C32.7079 77.8174 32.7132 77.8228 32.715 77.8263C32.7168 77.8281 32.7186 77.8298 32.7221 77.8334C32.7221 77.8334 32.7256 77.8369 32.7292 77.8405C32.731 77.8423 32.7327 77.844 32.7363 77.8476C32.7363 77.8476 32.7398 77.8511 32.7416 77.8529C32.7416 77.8529 32.7451 77.8564 32.7469 77.8582C32.7469 77.8582 32.7505 77.8618 32.7522 77.8653C32.7522 77.8653 32.7558 77.8689 32.7575 77.8724L32.7611 77.8759C32.7611 77.8759 32.7646 77.8795 32.7646 77.8813L32.7682 77.8848C32.7682 77.8848 32.7682 77.8848 32.7717 77.8866C32.7717 77.8866 32.7717 77.8884 32.7735 77.8901L32.8958 77.7625C32.731 77.6029 32.575 77.4327 32.435 77.2554L32.6087 77.399ZM33.5922 78.3476L33.4876 78.4912C33.4876 78.4912 33.4912 78.493 33.4929 78.4947C33.4929 78.4947 33.4947 78.4947 33.4965 78.4965C33.4965 78.4965 33.4965 78.4965 33.4983 78.4965C33.4983 78.4965 33.5 78.4965 33.5018 78.4983C33.5018 78.4983 33.5036 78.4983 33.5053 78.5001C33.5053 78.5001 33.5053 78.5001 33.5071 78.5001C33.5071 78.5001 33.5071 78.5001 33.5089 78.5001C33.5089 78.5001 33.5107 78.5001 33.5124 78.5018C33.5124 78.5018 33.5142 78.5018 33.516 78.5036C33.516 78.5036 33.5178 78.5054 33.5195 78.5054C33.5195 78.5054 33.5213 78.5054 33.5231 78.5072C33.5231 78.5072 33.5231 78.5072 33.5248 78.5072C33.5248 78.5072 33.5266 78.5072 33.5284 78.5089C33.5284 78.5089 33.5302 78.5089 33.5319 78.5107C33.5319 78.5107 33.5319 78.5107 33.5337 78.5107C33.5337 78.5107 33.5355 78.5107 33.5372 78.5125C33.5372 78.5125 33.5372 78.5125 33.539 78.5125C33.539 78.5125 33.5408 78.5125 33.5426 78.5142C33.5426 78.5142 33.5443 78.5142 33.5461 78.516C33.5461 78.516 33.5461 78.516 33.5479 78.516C33.5479 78.516 33.5497 78.516 33.5514 78.5178C33.5514 78.5178 33.5532 78.5178 33.555 78.5196C33.555 78.5196 33.555 78.5196 33.5567 78.5196C33.5567 78.5196 33.5585 78.5196 33.5603 78.5213C33.5603 78.5213 33.5621 78.5213 33.5638 78.5231C33.5638 78.5231 33.5638 78.5231 33.5656 78.5231C33.5656 78.5231 33.5674 78.5231 33.5691 78.5249C33.5691 78.5249 33.5709 78.5249 33.5727 78.5267C33.5727 78.5267 33.5745 78.5267 33.5762 78.5284C33.5762 78.5284 33.5762 78.5284 33.578 78.5284H33.5798C33.5798 78.5284 33.5815 78.5284 33.5833 78.5302C33.5833 78.5302 33.5833 78.5302 33.5851 78.5302C33.695 78.5993 33.8084 78.665 33.92 78.7217L34.0015 78.5639C33.8066 78.4646 33.6117 78.344 33.4238 78.2057L33.5922 78.3476ZM34.7954 78.954L34.7476 79.1242C34.7564 79.1259 34.7653 79.1295 34.7741 79.1313C34.9903 79.1898 35.1941 79.2164 35.3784 79.2164H35.3837H35.3855C35.3855 79.2164 35.3855 79.2164 35.3873 79.2164C35.3873 79.2164 35.3873 79.2164 35.389 79.2164H35.3908C35.3908 79.2164 35.3908 79.2164 35.3944 79.2164H35.3979C35.405 79.2164 35.4138 79.2164 35.4209 79.2164L35.4138 79.0391C35.3944 79.0391 35.3731 79.0391 35.3518 79.0391C35.1782 79.0391 34.9903 79.0125 34.7936 78.9593L34.7688 78.9522L34.7954 78.954ZM36.3814 78.4132C36.3105 78.61 36.1918 78.766 36.0252 78.8724L36.1209 79.0213C36.1209 79.0213 36.1209 79.0213 36.1227 79.0213C36.1227 79.0213 36.1244 79.0213 36.1262 79.0196C36.1262 79.0196 36.128 79.0196 36.1298 79.0178C36.1298 79.0178 36.1315 79.0178 36.1333 79.016C36.1333 79.016 36.1333 79.016 36.1351 79.016C36.1351 79.016 36.1368 79.016 36.1386 79.0142C36.1386 79.0142 36.1386 79.0142 36.1404 79.0142C36.1404 79.0142 36.1404 79.0142 36.1422 79.0142C36.1422 79.0142 36.1422 79.0142 36.1439 79.0142C36.1439 79.0142 36.1439 79.0142 36.1457 79.0142C36.1457 79.0142 36.1457 79.0142 36.1457 79.0125C36.1457 79.0125 36.1457 79.0125 36.1457 79.0107C36.1457 79.0107 36.1457 79.0107 36.1457 79.0089C36.1457 79.0089 36.1457 79.0089 36.1457 79.0072C36.1457 79.0072 36.1457 79.0072 36.1457 79.0054C36.1457 79.0054 36.1457 79.0054 36.1457 79.0036C36.1457 79.0036 36.1457 79.0036 36.1457 79.0018C36.1457 79.0018 36.1457 79.0018 36.1457 79.0001C36.1457 79.0001 36.1457 79.0001 36.1457 78.9983C36.1457 78.9983 36.1457 78.9983 36.1457 78.9965C36.1457 78.9965 36.1457 78.9965 36.1457 78.9947C36.1457 78.9947 36.1457 78.993 36.1475 78.9912C36.1475 78.9912 36.1475 78.9912 36.1475 78.9894C36.1475 78.9894 36.1475 78.9894 36.1475 78.9876C36.1475 78.9876 36.1475 78.9876 36.1475 78.9859V78.9823H36.1492C36.1492 78.9823 36.1492 78.9806 36.151 78.9788C36.151 78.9788 36.151 78.977 36.1528 78.9752C36.1528 78.9752 36.1528 78.9752 36.1528 78.9735C36.1528 78.9735 36.1528 78.9717 36.1546 78.9699C36.1546 78.9699 36.1546 78.9699 36.1546 78.9681C36.1546 78.9681 36.1546 78.9664 36.1563 78.9646C36.1563 78.9646 36.1563 78.9646 36.1563 78.9628C36.1563 78.9628 36.1563 78.9611 36.1581 78.9593C36.1581 78.9593 36.1581 78.9593 36.1581 78.9575C36.1581 78.9575 36.1581 78.9557 36.1599 78.954C36.1599 78.954 36.1599 78.954 36.1599 78.9522C36.1599 78.9522 36.1599 78.9504 36.1617 78.9486C36.1617 78.9486 36.1617 78.9486 36.1617 78.9469C36.1617 78.9469 36.1617 78.9469 36.1617 78.9451C36.1617 78.9451 36.1617 78.9451 36.1617 78.9433C36.1617 78.9433 36.1617 78.9433 36.1617 78.9415C36.1617 78.9415 36.1617 78.9415 36.1617 78.9398C36.1617 78.9398 36.1617 78.9398 36.1617 78.938C36.1617 78.938 36.1617 78.938 36.1617 78.9362C36.1617 78.9362 36.1617 78.9345 36.1617 78.9327C36.1617 78.9327 36.1617 78.9309 36.1617 78.9291C36.1617 78.9291 36.1617 78.9256 36.1634 78.9256C36.1634 78.9256 36.1634 78.922 36.1652 78.922C36.1652 78.9203 36.1652 78.9185 36.167 78.9167C36.1776 78.8937 36.1865 78.8706 36.1953 78.8458L36.0287 78.7855L36.3814 78.4132ZM36.4558 77.0852L36.2892 77.1472C36.3211 77.2359 36.3495 77.3228 36.3725 77.4096C36.408 77.5408 36.431 77.6703 36.4434 77.7908L36.6206 77.7731C36.6153 77.7181 36.6082 77.6614 36.5976 77.6047C36.5976 77.5976 36.5958 77.5905 36.594 77.5852C36.5852 77.5444 36.5763 77.5018 36.5657 77.4593C36.5657 77.4593 36.5657 77.4593 36.5657 77.4575C36.5657 77.4575 36.5657 77.4575 36.5657 77.4557C36.5657 77.4557 36.5657 77.454 36.5657 77.4522C36.5657 77.4522 36.5657 77.4522 36.5657 77.4504C36.5657 77.4504 36.5657 77.4504 36.5657 77.4486C36.5657 77.4486 36.5657 77.4486 36.5657 77.4469C36.5657 77.4469 36.5657 77.4451 36.5657 77.4433C36.5657 77.4433 36.5657 77.4433 36.5657 77.4415C36.5657 77.4415 36.5657 77.4415 36.5657 77.4398C36.5657 77.4398 36.5657 77.4398 36.5657 77.438C36.5657 77.438 36.5657 77.4345 36.5657 77.4327C36.5657 77.4327 36.5657 77.4327 36.5657 77.4309C36.5568 77.4043 36.5497 77.3777 36.5409 77.3511C36.5409 77.3511 36.5409 77.3511 36.5409 77.3493C36.5409 77.3493 36.5409 77.3458 36.5391 77.344C36.5391 77.344 36.5391 77.344 36.5391 77.3423V77.3405V77.3387C36.5391 77.3387 36.5391 77.3387 36.5391 77.3369C36.5391 77.3369 36.5391 77.3369 36.5391 77.3352C36.5391 77.3352 36.5391 77.3352 36.5391 77.3334C36.5391 77.3334 36.5391 77.3334 36.5391 77.3316C36.5338 77.3157 36.5267 77.2979 36.5214 77.282L36.4558 77.0852ZM35.7417 75.8671L35.6035 75.9788C35.7505 76.1596 35.8817 76.3476 35.9951 76.5373L36.1475 76.4469C36.0943 76.3564 36.0376 76.2678 35.9756 76.1791C35.9738 76.1756 35.972 76.1738 35.9685 76.1703C35.9685 76.1685 35.965 76.165 35.9632 76.1632C35.9632 76.1632 35.9614 76.1596 35.9596 76.1579C35.9596 76.1579 35.9579 76.1543 35.9561 76.1525C35.9561 76.1525 35.9561 76.1508 35.9543 76.149C35.9543 76.149 35.9543 76.1472 35.9543 76.1455C35.9543 76.1455 35.9543 76.1454 35.9543 76.1437C35.9543 76.1437 35.9543 76.1437 35.9543 76.1419C35.9543 76.1419 35.9543 76.1419 35.9543 76.1401C35.9543 76.1401 35.9543 76.1401 35.9543 76.1384C35.9543 76.1384 35.9543 76.1384 35.9543 76.1366C35.9543 76.1366 35.9543 76.1366 35.9543 76.1348C35.9543 76.1348 35.9543 76.1348 35.9543 76.133C35.9543 76.133 35.9543 76.133 35.9543 76.1313C35.9543 76.1313 35.9543 76.1313 35.9543 76.1295C35.9543 76.1295 35.9543 76.1295 35.9543 76.1277C35.9543 76.1277 35.9543 76.1277 35.9543 76.1259C35.9543 76.1259 35.9525 76.1224 35.9508 76.1224C35.9508 76.1224 35.9508 76.1224 35.9508 76.1206C35.9508 76.1206 35.9508 76.1206 35.9508 76.1189C35.9508 76.1171 35.9472 76.1153 35.9455 76.1118C35.9455 76.1118 35.9455 76.1118 35.9455 76.11C35.9455 76.1082 35.9419 76.1064 35.9401 76.1029C35.9401 76.1029 35.9401 76.1029 35.9401 76.1011C35.9401 76.1011 35.9401 76.1011 35.9401 76.0993C35.9401 76.0993 35.9384 76.0958 35.9366 76.094C35.9366 76.094 35.9366 76.094 35.9366 76.0923C35.9366 76.0923 35.9366 76.0923 35.9366 76.0905C35.9366 76.0905 35.9331 76.0852 35.9313 76.0834C35.9313 76.0834 35.9313 76.0834 35.9313 76.0816C35.9313 76.0816 35.9277 76.0763 35.926 76.0745C35.926 76.0745 35.926 76.0745 35.926 76.0728C35.9242 76.0692 35.9207 76.0674 35.9189 76.0639C35.9189 76.0639 35.9136 76.0586 35.9118 76.055C35.9012 76.0408 35.8905 76.0284 35.8817 76.016C35.8639 75.993 35.8445 75.9699 35.825 75.9451L35.7417 75.8671ZM34.7103 74.899L34.6076 75.0444C34.7901 75.1738 34.9691 75.3192 35.1374 75.4788L35.2579 75.3493C35.2384 75.3298 35.2171 75.3121 35.1977 75.2944C35.1959 75.2926 35.1941 75.2908 35.1906 75.2891C35.1906 75.2891 35.187 75.2855 35.1853 75.2855C35.1853 75.2855 35.1853 75.2855 35.1835 75.2837H35.1817V75.282C35.1817 75.282 35.1817 75.282 35.1799 75.282C35.1799 75.282 35.1764 75.2802 35.1764 75.2784C35.1746 75.2767 35.1728 75.2749 35.1711 75.2731C35.1711 75.2731 35.1711 75.2731 35.1693 75.2731C35.1693 75.2731 35.1693 75.2731 35.1675 75.2731C35.0382 75.1596 34.9053 75.0533 34.767 74.954C34.767 74.954 34.7617 74.9504 34.7582 74.9469C34.7582 74.9469 34.7582 74.9469 34.7564 74.9469C34.7564 74.9469 34.7564 74.9469 34.7546 74.9469C34.7546 74.9469 34.7511 74.9451 34.7511 74.9433L34.7103 74.899ZM33.4398 74.2873L33.3955 74.4593L33.4327 74.4681C33.6258 74.5196 33.8243 74.5958 34.0246 74.6933L34.1025 74.5337C34.0884 74.5267 34.0742 74.5196 34.06 74.5142C34.06 74.5142 34.06 74.5142 34.0582 74.5142C34.0582 74.5142 34.0565 74.5142 34.0547 74.5125C34.0547 74.5125 34.0529 74.5125 34.0511 74.5107C34.0511 74.5107 34.0511 74.5107 34.0494 74.5107C34.0494 74.5107 34.0476 74.5107 34.0458 74.5107C34.0458 74.5107 34.0458 74.5107 34.0441 74.5107C34.0441 74.5107 34.0441 74.5107 34.0423 74.5107C34.0423 74.5107 34.0423 74.5107 34.0405 74.5107C34.0405 74.5107 34.0405 74.5107 34.0387 74.5107C34.0387 74.5107 34.037 74.5107 34.0352 74.5107C34.0352 74.5107 34.0334 74.5107 34.0316 74.5107C34.0316 74.5107 34.0316 74.5107 34.0299 74.5107C34.0299 74.5107 34.0281 74.5107 34.0263 74.5107C33.9058 74.4575 33.7836 74.4114 33.6631 74.3724H33.6595C33.6577 74.3724 33.656 74.3724 33.6542 74.3706C33.6542 74.3706 33.6524 74.3706 33.6507 74.3706C33.6507 74.3706 33.6507 74.3706 33.6489 74.3706H33.6453C33.6453 74.3706 33.6436 74.3706 33.6418 74.3706C33.6418 74.3706 33.6418 74.3706 33.64 74.3706C33.64 74.3706 33.64 74.3706 33.6383 74.3706C33.6383 74.3706 33.6365 74.3706 33.6347 74.3706C33.6347 74.3706 33.6347 74.3706 33.6329 74.3706C33.6329 74.3706 33.6205 74.3671 33.6152 74.3653C33.6134 74.3653 33.6099 74.3653 33.6081 74.3635C33.6064 74.3635 33.6046 74.3635 33.6028 74.3635L33.4398 74.2873Z" fill="#4E4E4E"/>
<path d="M34.9108 77.4934C35.16 77.2441 35.0124 76.6923 34.5813 76.261C34.1501 75.8296 33.5987 75.682 33.3496 75.9312C33.1004 76.1805 33.248 76.7323 33.6791 77.1636C34.1102 77.595 34.6617 77.7426 34.9108 77.4934Z" fill="black"/>
<path d="M38.8109 80.6009C39.0607 79.9431 39.066 79.1257 38.8233 78.2179C38.0826 75.4537 35.2331 72.6026 32.4705 71.8615C32.0275 71.7427 31.6022 71.6824 31.2088 71.6824C30.8154 71.6824 30.422 71.7463 30.0888 71.8739C30.5141 71.264 31.23 70.9307 32.1356 70.9307C32.5148 70.9307 32.9241 70.9892 33.353 71.1044C36.0606 71.8296 38.8552 74.6257 39.5799 77.3349C39.9716 78.7959 39.6827 79.9927 38.8109 80.6009Z" fill="#4E4E4E"/>
<path d="M32.1356 71.0194C32.5077 71.0194 32.9099 71.0761 33.3299 71.1896C36.011 71.9077 38.7754 74.6754 39.4949 77.3581C39.8387 78.6453 39.6473 79.718 38.9863 80.3439C39.1476 79.7251 39.1228 78.9928 38.9101 78.1949C38.1623 75.4042 35.2845 72.5247 32.4953 71.7765C32.0452 71.6559 31.6128 71.5939 31.2106 71.5939C30.9022 71.5939 30.6134 71.6293 30.3476 71.6985C30.764 71.257 31.3824 71.0194 32.1373 71.0194M32.1373 70.8421C31.0688 70.8421 30.2731 71.2907 29.8691 72.0691C30.2448 71.874 30.6949 71.7694 31.2106 71.7694C31.5915 71.7694 32.0062 71.8261 32.451 71.9449C35.1906 72.679 38.0064 75.4964 38.74 78.2375C39.02 79.2836 38.9562 80.1666 38.6177 80.8191C39.6739 80.2712 40.1222 79.0035 39.6685 77.3084C38.9349 74.5673 36.1191 71.7499 33.3795 71.0159C32.9348 70.8971 32.5201 70.8403 32.1391 70.8403L32.1373 70.8421Z" fill="#4E4E4E"/>
<path d="M38.6159 81C38.5876 81 38.561 80.9929 38.5344 80.9805C38.4476 80.9362 38.4139 80.828 38.4582 80.7411C38.7896 80.1046 38.8268 79.2553 38.5681 78.2872C37.8504 75.6046 35.0842 72.8387 32.4031 72.1188C31.4356 71.8599 30.5868 71.8972 29.9506 72.2287C29.8638 72.2731 29.7575 72.2394 29.7114 72.1525C29.6671 72.0656 29.7008 71.9592 29.7876 71.9131C30.5035 71.5408 31.4409 71.4929 32.4953 71.7766C35.2845 72.5248 38.1623 75.4043 38.9101 78.195C39.1936 79.25 39.1458 80.1879 38.7736 80.9043C38.7418 80.9645 38.6797 81 38.6159 81Z" fill="#666666"/>
<path d="M103.193 118.497C104.611 117.078 103.769 113.936 101.313 111.478C98.8573 109.021 95.7168 108.179 94.2988 109.598C92.8809 111.016 93.7224 114.159 96.1784 116.616C98.6344 119.073 101.775 119.915 103.193 118.497Z" fill="black"/>
<path d="M101.957 117.261C102.982 116.236 102.374 113.966 100.6 112.192C98.8266 110.417 96.5585 109.809 95.5343 110.834C94.5101 111.859 95.1177 114.128 96.8913 115.903C98.665 117.677 100.933 118.285 101.957 117.261Z" fill="#D9EFF1"/>
<path d="M97.4941 111.543H97.4905H97.487C97.487 111.543 97.487 111.543 97.4852 111.543C97.4852 111.543 97.4834 111.543 97.4817 111.543C97.4817 111.543 97.4781 111.543 97.4764 111.543C97.4746 111.543 97.4728 111.543 97.4693 111.543H97.4639C97.4639 111.543 97.4586 111.543 97.4569 111.543C97.4569 111.543 97.4515 111.543 97.4498 111.543C97.4498 111.543 97.4445 111.543 97.4409 111.543C97.4374 111.543 97.4338 111.543 97.4285 111.543C97.425 111.543 97.4214 111.543 97.4179 111.543C97.4179 111.543 97.4108 111.543 97.4055 111.543C97.324 111.551 97.2442 111.566 97.1698 111.587C97.1574 111.59 97.145 111.594 97.1326 111.598C97.129 111.598 97.1255 111.599 97.1202 111.601C97.1202 111.601 97.1131 111.603 97.1095 111.605C97.106 111.605 97.1042 111.605 97.1024 111.606C97.1007 111.606 97.0971 111.608 97.0954 111.61C97.0936 111.61 97.0918 111.61 97.0883 111.612C97.0865 111.612 97.0847 111.612 97.0812 111.614C97.0794 111.614 97.0776 111.614 97.0741 111.615C97.0723 111.615 97.0705 111.615 97.0688 111.617H97.0652C97.0652 111.617 97.0617 111.617 97.0599 111.619H97.0564C97.0564 111.619 97.0546 111.619 97.0528 111.619C97.0528 111.619 97.0511 111.619 97.0493 111.619C97.0493 111.619 97.0493 111.619 97.0475 111.619C97.0475 111.619 97.0475 111.619 97.0457 111.619C97.0457 111.619 97.0457 111.619 97.044 111.619L97.1308 111.773C97.2956 111.681 97.4958 111.635 97.7262 111.635V111.458L97.4941 111.543ZM96.3493 112.225C96.3422 112.241 96.3352 112.259 96.3298 112.275C96.3298 112.277 96.3298 112.278 96.3281 112.282C96.3281 112.282 96.3281 112.282 96.3281 112.284C96.3281 112.284 96.3281 112.287 96.3281 112.289C96.3281 112.291 96.3281 112.294 96.3263 112.296C96.3263 112.296 96.3263 112.301 96.3245 112.305C96.3245 112.305 96.3245 112.312 96.3227 112.316C96.3227 112.316 96.3227 112.323 96.321 112.326C96.321 112.326 96.321 112.332 96.3192 112.335C96.3192 112.335 96.3192 112.342 96.3174 112.346C96.3174 112.346 96.3174 112.351 96.3157 112.355C96.3157 112.355 96.3157 112.358 96.3157 112.36C96.3157 112.36 96.3157 112.362 96.3157 112.364C96.3157 112.364 96.3157 112.365 96.3157 112.367C96.3157 112.369 96.3157 112.372 96.3157 112.374C96.3157 112.38 96.3157 112.383 96.3157 112.388C96.3157 112.388 96.3157 112.388 96.3157 112.39C96.3068 112.484 96.305 112.582 96.3121 112.684L96.4893 112.674C96.4734 112.44 96.5035 112.234 96.5779 112.059L96.4149 111.989L96.3493 112.225ZM96.562 113.555L96.3954 113.614C96.3954 113.614 96.3954 113.615 96.3954 113.617C96.3954 113.617 96.3954 113.619 96.3954 113.621C96.3954 113.621 96.3954 113.622 96.3954 113.624V113.628C96.3954 113.628 96.3954 113.63 96.3954 113.631C96.3954 113.631 96.3954 113.631 96.3954 113.633C96.3954 113.633 96.3954 113.635 96.3954 113.637C96.3954 113.637 96.3954 113.638 96.3954 113.64C96.3954 113.64 96.3954 113.642 96.3954 113.644C96.3954 113.644 96.3954 113.645 96.3954 113.647C96.3954 113.647 96.3954 113.647 96.3954 113.649C96.3954 113.649 96.3954 113.649 96.3954 113.651C96.3954 113.651 96.3954 113.651 96.3954 113.653C96.3954 113.653 96.3954 113.653 96.3954 113.654C96.3954 113.654 96.3954 113.654 96.3954 113.656C96.3954 113.656 96.3954 113.656 96.3954 113.658C96.3954 113.658 96.3954 113.658 96.3954 113.66C96.3954 113.66 96.3954 113.66 96.3954 113.661C96.3954 113.661 96.3954 113.663 96.3954 113.665C96.3954 113.665 96.3954 113.667 96.3954 113.669C96.3954 113.669 96.3954 113.669 96.3954 113.67C96.3954 113.67 96.3954 113.67 96.3954 113.672V113.674C96.3954 113.674 96.3954 113.676 96.3954 113.677C96.3954 113.677 96.3954 113.679 96.3954 113.681C96.3954 113.681 96.3954 113.683 96.3954 113.684C96.4574 113.84 96.5336 113.995 96.6187 114.147C96.6187 114.147 96.6187 114.149 96.6204 114.151C96.6204 114.151 96.6205 114.153 96.6222 114.154C96.6222 114.154 96.6222 114.156 96.624 114.158C96.624 114.158 96.624 114.158 96.624 114.16L96.7782 114.071C96.6612 113.867 96.5655 113.66 96.4964 113.458L96.562 113.555ZM97.2265 114.732L97.0883 114.842C97.2336 115.027 97.3931 115.202 97.565 115.367L97.6872 115.239C97.5224 115.08 97.3665 114.91 97.2265 114.732ZM98.21 115.681L98.1054 115.825C98.2312 115.917 98.3606 116.002 98.4917 116.078C98.4917 116.078 98.4935 116.078 98.4953 116.08C98.4953 116.08 98.4953 116.08 98.497 116.08C98.497 116.08 98.4988 116.08 98.5006 116.082C98.5006 116.082 98.5024 116.082 98.5041 116.083C98.5041 116.083 98.5059 116.083 98.5077 116.085C98.5077 116.085 98.5077 116.085 98.5095 116.085C98.5095 116.085 98.5095 116.085 98.5112 116.085C98.5112 116.085 98.513 116.085 98.5148 116.087C98.5165 116.087 98.5183 116.089 98.5201 116.09C98.5679 116.117 98.6176 116.144 98.6672 116.169L98.7487 116.011C98.5538 115.911 98.3588 115.791 98.171 115.653L98.21 115.681ZM99.4132 116.287L99.3654 116.458C99.3671 116.458 99.3689 116.458 99.3707 116.458C99.5869 116.516 99.7907 116.543 99.9749 116.543H99.9785C99.9785 116.543 99.9785 116.543 99.9803 116.543C99.9803 116.543 99.9803 116.543 99.982 116.543C99.982 116.543 99.9838 116.543 99.9856 116.543C99.9856 116.543 99.9873 116.543 99.9891 116.543H99.9927C99.9927 116.543 100.009 116.543 100.016 116.543L100.009 116.365C99.9891 116.365 99.9679 116.365 99.9466 116.365C99.7729 116.365 99.5851 116.339 99.3884 116.286L99.3636 116.278L99.4132 116.287ZM100.999 115.747C100.928 115.943 100.81 116.099 100.643 116.206L100.739 116.355C100.739 116.355 100.74 116.355 100.742 116.353C100.742 116.353 100.749 116.348 100.753 116.346C100.831 116.293 100.902 116.232 100.964 116.161C100.964 116.161 100.966 116.158 100.967 116.158C100.967 116.158 100.969 116.154 100.971 116.154C100.971 116.154 100.973 116.153 100.974 116.151C100.974 116.151 100.976 116.149 100.978 116.147C100.978 116.147 100.98 116.145 100.981 116.144C100.981 116.144 100.983 116.142 100.985 116.14C100.985 116.14 100.987 116.138 100.989 116.137C100.989 116.137 100.989 116.137 100.99 116.135C100.99 116.135 100.99 116.135 100.992 116.133C100.992 116.133 100.992 116.133 100.994 116.131C100.994 116.131 100.994 116.131 100.996 116.13C100.996 116.13 100.996 116.13 100.996 116.128C100.996 116.128 100.996 116.128 100.996 116.126C100.996 116.126 100.996 116.126 100.996 116.124C100.996 116.124 100.996 116.124 100.996 116.122C100.996 116.122 100.996 116.121 100.996 116.119C100.996 116.119 100.996 116.117 100.996 116.115C100.996 116.115 100.996 116.112 100.997 116.112C100.997 116.11 100.997 116.108 100.999 116.106C101.012 116.08 101.022 116.051 101.031 116.023L100.865 115.963L100.999 115.747ZM101.074 114.419L100.907 114.481C100.939 114.569 100.967 114.656 100.99 114.743C101.026 114.874 101.049 115.004 101.061 115.124L101.238 115.106C101.235 115.076 101.231 115.044 101.228 115.012C101.222 114.977 101.215 114.942 101.208 114.906C101.208 114.906 101.208 114.903 101.208 114.901C101.207 114.888 101.203 114.876 101.199 114.864C101.199 114.86 101.199 114.856 101.198 114.853C101.198 114.853 101.198 114.853 101.198 114.851C101.182 114.794 101.164 114.738 101.146 114.681C101.146 114.681 101.146 114.681 101.146 114.679C101.146 114.677 101.146 114.674 101.144 114.672C101.144 114.672 101.144 114.672 101.144 114.67C101.144 114.67 101.144 114.667 101.143 114.665C101.143 114.665 101.143 114.665 101.143 114.663C101.143 114.663 101.143 114.661 101.143 114.66C101.143 114.66 101.143 114.66 101.143 114.658C101.143 114.658 101.143 114.658 101.143 114.656C101.143 114.656 101.143 114.656 101.143 114.654C101.143 114.654 101.143 114.653 101.143 114.651C101.143 114.651 101.143 114.651 101.143 114.649C101.143 114.649 101.143 114.649 101.143 114.647V114.642H101.141C101.141 114.642 101.141 114.642 101.141 114.64C101.141 114.64 101.141 114.64 101.141 114.638C101.141 114.638 101.139 114.633 101.137 114.631C101.137 114.631 101.136 114.624 101.134 114.621C101.134 114.621 101.13 114.61 101.129 114.605L101.074 114.419ZM100.359 113.2L100.221 113.312C100.368 113.493 100.499 113.681 100.613 113.871L100.765 113.78C100.765 113.78 100.765 113.78 100.765 113.778C100.765 113.778 100.765 113.778 100.765 113.777C100.765 113.777 100.764 113.773 100.762 113.771C100.762 113.77 100.758 113.766 100.756 113.764C100.755 113.761 100.753 113.759 100.751 113.755C100.698 113.669 100.641 113.582 100.581 113.497C100.581 113.495 100.577 113.491 100.576 113.489C100.574 113.486 100.572 113.484 100.569 113.481C100.569 113.479 100.565 113.475 100.563 113.473C100.563 113.472 100.56 113.468 100.558 113.466C100.558 113.466 100.556 113.463 100.554 113.461C100.554 113.461 100.553 113.458 100.551 113.456C100.551 113.456 100.551 113.454 100.549 113.452C100.549 113.452 100.549 113.45 100.547 113.449C100.547 113.449 100.547 113.449 100.547 113.447C100.547 113.447 100.547 113.447 100.547 113.445C100.547 113.445 100.547 113.445 100.547 113.443C100.547 113.443 100.547 113.443 100.547 113.442C100.547 113.442 100.547 113.442 100.547 113.44C100.547 113.44 100.547 113.44 100.547 113.438C100.547 113.438 100.547 113.438 100.547 113.436C100.547 113.436 100.547 113.436 100.547 113.434C100.547 113.434 100.547 113.434 100.547 113.433C100.547 113.433 100.547 113.433 100.547 113.431C100.547 113.431 100.547 113.431 100.547 113.429C100.547 113.429 100.547 113.429 100.547 113.427C100.547 113.427 100.547 113.427 100.547 113.426C100.547 113.426 100.547 113.426 100.547 113.424C100.547 113.424 100.547 113.422 100.546 113.42C100.546 113.42 100.546 113.419 100.544 113.417C100.544 113.417 100.542 113.413 100.54 113.411C100.538 113.41 100.537 113.406 100.535 113.404C100.535 113.404 100.533 113.403 100.531 113.401L100.359 113.2ZM99.3281 112.232L99.2254 112.378C99.4079 112.507 99.5869 112.653 99.7552 112.812L99.8757 112.683C99.8403 112.649 99.8048 112.617 99.7676 112.583C99.7641 112.582 99.7623 112.578 99.7588 112.576C99.757 112.575 99.7534 112.573 99.7517 112.571C99.7499 112.569 99.7481 112.567 99.7446 112.566C99.7446 112.566 99.741 112.562 99.7393 112.562C99.7393 112.562 99.7357 112.56 99.7357 112.559C99.7357 112.559 99.7357 112.559 99.7339 112.559C99.7339 112.559 99.7339 112.559 99.7322 112.559C99.7322 112.559 99.7322 112.559 99.7304 112.559C99.7304 112.559 99.7269 112.557 99.7269 112.555C99.7269 112.555 99.7269 112.555 99.7251 112.553C99.7251 112.553 99.7233 112.553 99.7215 112.551C99.7215 112.551 99.718 112.55 99.7162 112.548C99.7162 112.548 99.7145 112.546 99.7127 112.546C99.7127 112.546 99.7091 112.544 99.7074 112.543C99.7056 112.541 99.702 112.539 99.7003 112.537C99.6985 112.536 99.695 112.534 99.6932 112.532C99.6914 112.53 99.6879 112.528 99.6861 112.527C99.6134 112.468 99.539 112.413 99.4628 112.358L99.3281 112.232ZM98.0576 111.621L98.0133 111.793L98.0505 111.801C98.2436 111.853 98.4421 111.929 98.6424 112.027L98.7203 111.867C98.5538 111.786 98.3872 111.718 98.2188 111.665C98.2188 111.665 98.2171 111.665 98.2153 111.665C98.2153 111.665 98.2153 111.665 98.2135 111.665C98.2135 111.665 98.2135 111.665 98.2118 111.665C98.2118 111.665 98.21 111.665 98.2082 111.665C98.2082 111.665 98.2082 111.665 98.2064 111.665C98.2064 111.665 98.2064 111.665 98.2047 111.665C98.2047 111.665 98.2029 111.665 98.2011 111.665C98.2011 111.665 98.2011 111.665 98.1993 111.665C98.1993 111.665 98.1993 111.665 98.1976 111.665C98.1976 111.665 98.1958 111.665 98.194 111.665C98.194 111.665 98.1852 111.663 98.1816 111.661C98.1745 111.66 98.1674 111.658 98.1604 111.656L98.0576 111.621Z" fill="#4E4E4E"/>
<path d="M99.5265 114.828C99.7756 114.579 99.6281 114.027 99.1969 113.596C98.7658 113.165 98.2144 113.017 97.9652 113.266C97.7161 113.515 97.8636 114.067 98.2948 114.499C98.7259 114.93 99.2774 115.078 99.5265 114.828Z" fill="black"/>
<path d="M103.515 117.823C103.765 117.165 103.771 116.347 103.528 115.44C102.787 112.675 99.9377 109.824 97.1751 109.083C96.7321 108.964 96.3068 108.904 95.9134 108.904C95.52 108.904 95.1266 108.968 94.7935 109.096C95.2187 108.486 95.9347 108.152 96.8402 108.152C97.2194 108.152 97.6287 108.211 98.0576 108.326C100.765 109.051 103.558 111.847 104.285 114.557C104.676 116.018 104.387 117.214 103.515 117.823Z" fill="#4E4E4E"/>
<path d="M96.8384 108.243C97.2105 108.243 97.6128 108.3 98.0328 108.413C100.714 109.131 103.478 111.899 104.198 114.581C104.542 115.869 104.35 116.941 103.689 117.567C103.85 116.948 103.826 116.216 103.613 115.418C102.865 112.628 99.9873 109.748 97.1981 109C96.748 108.879 96.3157 108.817 95.9134 108.817C95.6051 108.817 95.3162 108.853 95.0504 108.922C95.4668 108.48 96.0853 108.243 96.8402 108.243M96.8402 108.065C95.7716 108.065 94.976 108.514 94.572 109.292C94.9476 109.097 95.3977 108.993 95.9134 108.993C96.2944 108.993 96.7091 109.05 97.1538 109.168C99.8934 109.902 102.709 112.72 103.443 115.461C103.723 116.507 103.659 117.39 103.321 118.042C104.377 117.495 104.825 116.227 104.371 114.532C103.638 111.791 100.822 108.973 98.0824 108.239C97.6376 108.12 97.2229 108.064 96.842 108.064L96.8402 108.065Z" fill="#4E4E4E"/>
<path d="M103.319 118.222C103.29 118.222 103.264 118.215 103.237 118.202C103.15 118.158 103.117 118.05 103.161 117.963C103.492 117.326 103.53 116.477 103.271 115.509C102.553 112.826 99.7871 110.06 97.106 109.34C96.1384 109.082 95.2896 109.119 94.6535 109.45C94.5666 109.495 94.4603 109.461 94.4142 109.374C94.3699 109.287 94.4036 109.181 94.4904 109.135C95.2063 108.762 96.1438 108.715 97.1981 108.998C99.9873 109.747 102.865 112.626 103.613 115.417C103.896 116.472 103.849 117.41 103.476 118.126C103.445 118.186 103.383 118.222 103.319 118.222Z" fill="#666666"/>
</g>
</g>
<defs>
<clipPath id="clip0_33_3445">
<rect width="151" height="151" rx="10" fill="white"/>
</clipPath>
<clipPath id="clip1_33_3445">
<rect width="110" height="98" fill="white" transform="translate(21 26)"/>
</clipPath>
</defs>
</svg>
